<svg width="40" height="40" viewBox="0 0 40 40" fill="none" xmlns="http://www.w3.org/2000/svg">
<path d="M24.4331 13H15.5666C14.1514 13 13 14.1514 13 15.5666V24.4331C13 25.8483 14.1514 27 15.5666 27H24.4331C25.8483 27 27 25.8486 27 24.4331V15.5666C27 14.1514 25.8486 13 24.4331 13ZM19.9998 24.6087C17.4587 24.6087 15.3913 22.5413 15.3913 19.9998C15.3913 17.4587 17.4587 15.3913 19.9998 15.3913C22.5413 15.3913 24.6087 17.4587 24.6087 19.9998C24.6087 22.5409 22.5409 24.6087 19.9998 24.6087ZM24.7569 16.3441C24.1553 16.3441 23.6661 15.855 23.6661 15.2537C23.6661 14.6525 24.1553 14.1633 24.7569 14.1633C25.3581 14.1633 25.8473 14.6525 25.8473 15.2537C25.8473 15.855 25.3581 16.3441 24.7569 16.3441Z" fill="white"/>
<path d="M20.0002 17C18.3465 17 17 18.3458 17 19.9994C17 21.6538 18.3465 23 20.0002 23C21.6546 23 23 21.6538 23 19.9994C23 18.3462 21.6542 17 20.0002 17Z" fill="white"/>
<path d="M20 0C8.95475 0 0 8.95475 0 20C0 31.0453 8.95475 40 20 40C31.0453 40 40 31.0453 40 20C40 8.95475 31.0453 0 20 0ZM29 24C29 27.3472 27.3472 29 24 29H16C12.6532 29 11 27.3472 11 24V16C11 12.6532 12.6532 11 16 11H24C27.3472 11 29 12.6532 29 16V24Z" fill="white"/>
</svg>
