<svg width="39" height="43" viewBox="0 0 39 43" fill="none" xmlns="http://www.w3.org/2000/svg">
<g opacity="0.3">
<path d="M15.7266 34.7866H13.9495C13.2091 34.7866 12.6167 35.3787 12.6167 36.1188V40.8556C12.6167 41.5958 13.2091 42.1879 13.9495 42.1879H15.7266C16.4671 42.1879 17.0595 41.5958 17.0595 40.8556V36.1188C17.0595 35.3787 16.4671 34.7866 15.7266 34.7866ZM16.319 40.8556C16.319 41.1813 16.0524 41.4477 15.7266 41.4477H13.9495C13.6237 41.4477 13.3572 41.1813 13.3572 40.8556V40.2635H16.319V40.8556Z" fill="white"/>
<path d="M15.7269 34.046H13.9498C12.7946 34.046 11.8765 34.9638 11.8765 36.1184V40.8552C11.8765 42.0098 12.7946 42.9276 13.9498 42.9276H15.7269C16.882 42.9276 17.8002 42.0098 17.8002 40.8552V40.2631C17.8002 40.2631 17.8002 38.6052 17.8002 36.1184C17.8002 34.9638 16.882 34.046 15.7269 34.046ZM16.3192 40.8552C16.3192 41.1809 16.0527 41.4473 15.7269 41.4473H13.9498C13.624 41.4473 13.3574 41.1809 13.3574 40.8552V36.1184C13.3574 35.7927 13.624 35.5263 13.9498 35.5263H15.7269C16.0527 35.5263 16.3192 35.7927 16.3192 36.1184V40.8552Z" fill="black"/>
<path d="M13.4465 2.57566C11.9359 0.976972 9.80347 0 7.43405 0C5.5089 0 3.76144 0.651314 2.33979 1.74671C0.858904 2.90131 0 4.70723 0 6.60197V9.97697C0 11.8717 0.829286 13.6776 2.33979 14.8322C3.73183 15.9276 5.5089 16.5789 7.43405 16.5789C9.06303 16.5789 10.6032 16.1053 11.8767 15.2763V40.2631H17.8003C17.8003 40.2631 17.8003 38.6052 17.8003 36.1184V13.6184C17.8003 8.28947 15.9343 5.15131 13.4465 2.57566ZM1.6882 12.0197C1.27355 12.0197 1.06623 10.3322 1.06623 8.25986C1.06623 6.18749 1.27355 4.5 1.6882 4.5C2.10285 4.5 2.42864 6.18749 2.42864 8.25986C2.42864 10.3618 2.10285 12.0197 1.6882 12.0197ZM6.10125 8.88157C5.6866 8.88157 5.36081 8.55592 5.36081 8.14144C5.36081 7.72697 5.6866 7.40131 6.10125 7.40131C6.5159 7.40131 6.8417 7.72697 6.8417 8.14144C6.8417 8.55592 6.5159 8.88157 6.10125 8.88157ZM11.7582 5.32894C11.5805 5.03289 11.3436 4.76644 11.1067 4.5C10.8697 4.26315 10.5735 4.02631 10.2773 3.84868C9.95155 3.61184 9.74423 3.19737 9.89232 2.8125C9.98117 2.57566 10.2477 2.42763 10.5143 2.42763C10.692 2.42763 10.8697 2.48684 11.0474 2.60526C11.4325 2.8421 11.7879 3.13816 12.1137 3.46381C12.4394 3.78947 12.7356 4.14474 12.9726 4.5296C13.2688 5.00329 13.1503 5.56579 12.7652 5.71381C12.6764 5.74342 12.5875 5.77302 12.4987 5.77302C12.2321 5.74342 11.9359 5.56579 11.7582 5.32894Z" fill="black"/>
<path d="M24.6124 34.7866H22.8353C22.0948 34.7866 21.5024 35.3787 21.5024 36.1188V40.8556C21.5024 41.5958 22.0948 42.1879 22.8353 42.1879H24.6124C25.3528 42.1879 25.9452 41.5958 25.9452 40.8556V36.1188C25.9452 35.3787 25.3528 34.7866 24.6124 34.7866ZM25.2047 40.8556C25.2047 41.1813 24.9382 41.4477 24.6124 41.4477H22.8353C22.5095 41.4477 22.2429 41.1813 22.2429 40.8556V40.2635H25.2047V40.8556Z" fill="white"/>
<path d="M24.6125 34.046H22.8355C21.6804 34.046 20.7622 34.9638 20.7622 36.1184C20.7622 38.6052 20.7622 40.2631 20.7622 40.2631V40.8552C20.7622 42.0098 21.6804 42.9276 22.8355 42.9276H24.6125C25.7676 42.9276 26.6858 42.0098 26.6858 40.8552V36.1184C26.6858 34.9638 25.7676 34.046 24.6125 34.046ZM25.2049 40.8552C25.2049 41.1809 24.9383 41.4473 24.6125 41.4473H22.8355C22.5097 41.4473 22.2431 41.1809 22.2431 40.8552V36.1184C22.2431 35.7927 22.5097 35.5263 22.8355 35.5263H24.6125C24.9383 35.5263 25.2049 35.7927 25.2049 36.1184V40.8552Z" fill="black"/>
<path d="M36.2227 1.74671C34.8306 0.651314 33.0536 0 31.1284 0C28.759 0 26.6265 0.976972 25.116 2.57566C22.6281 5.15131 20.7622 8.28947 20.7622 13.6184V36.1184C20.7622 38.6052 20.7622 40.2631 20.7622 40.2631H26.6858V15.2763C27.9593 16.1053 29.4994 16.5789 31.1284 16.5789C33.0536 16.5789 34.801 15.6316 36.2227 14.5362C37.7036 13.3816 38.5625 11.546 38.5625 9.68091V6.30592C38.5329 4.41118 37.7036 2.90131 36.2227 1.74671ZM28.2851 3.84868C27.9889 4.02631 27.7224 4.26315 27.4558 4.5C27.2189 4.73684 26.9819 5.03289 26.8042 5.32894C26.6265 5.59539 26.36 5.77302 26.0342 5.77302C25.9453 5.77302 25.8565 5.74342 25.7676 5.71381C25.3826 5.56579 25.2641 5.00329 25.5603 4.5296C25.7972 4.14474 26.0934 3.78947 26.4192 3.46381C26.745 3.13816 27.1004 2.8421 27.4854 2.60526C27.6631 2.48684 27.8409 2.42763 28.0186 2.42763C28.3147 2.42763 28.5517 2.57566 28.6405 2.8125C28.8182 3.16776 28.6109 3.61184 28.2851 3.84868ZM32.4612 8.88157C32.0466 8.88157 31.7208 8.55592 31.7208 8.14144C31.7208 7.72697 32.0466 7.40131 32.4612 7.40131C32.8759 7.40131 33.2017 7.72697 33.2017 8.14144C33.2017 8.55592 32.8759 8.88157 32.4612 8.88157ZM36.8743 11.7237C36.4596 11.7237 36.1338 10.0362 36.1338 7.96381C36.1338 5.89144 36.4596 4.20394 36.8743 4.20394C37.2889 4.20394 37.4962 5.89144 37.4962 7.96381C37.4962 10.0658 37.2889 11.7237 36.8743 11.7237Z" fill="black"/>
</g>
</svg>
