<svg width="20" height="25" viewBox="0 0 20 25" fill="none" xmlns="http://www.w3.org/2000/svg">
<path d="M18.5116 7.08008C18.2953 7.08008 18.1199 7.24564 18.1199 7.44991V21.6717C18.1199 23.0991 16.89 24.2603 15.3783 24.2603H4.62116C3.10947 24.2603 1.87975 23.0991 1.87975 21.6717V7.44991C1.87975 7.24564 1.70443 7.08008 1.48809 7.08008C1.27176 7.08008 1.09644 7.24564 1.09644 7.44991V21.6717C1.09644 23.5069 2.67761 25 4.62116 25H15.3783C17.3221 25 18.9033 23.5069 18.9033 21.6717V7.44991C18.9033 7.24564 18.7279 7.08008 18.5116 7.08008Z" fill="black"/>
<path d="M18.5639 1.97239H13.8973L13.2499 0.749587C13.0051 0.287246 12.5129 0 11.9655 0H8.03454C7.48695 0 6.9949 0.287246 6.75009 0.749587L6.10271 1.97239H1.43594C0.644145 1.97239 0 2.58064 0 3.32832V4.70905C0 5.45673 0.644145 6.06517 1.43594 6.06517H18.5641C19.3559 6.06517 20 5.45673 20 4.70905V3.32832C20 2.58064 19.3557 1.97239 18.5639 1.97239ZM7.45059 1.08032C7.56188 0.870131 7.78569 0.739669 8.03454 0.739669H11.9655C12.2143 0.739669 12.4381 0.870131 12.5494 1.08032L13.0217 1.97239H6.97834L7.45059 1.08032ZM19.2167 4.70905C19.2167 5.04894 18.9238 5.3255 18.5641 5.3255H1.43594C1.076 5.3255 0.783316 5.04894 0.783316 4.70905V3.32832C0.783316 2.98843 1.0762 2.71206 1.43594 2.71206H13.6545H13.6557H13.6569H18.5641C18.924 2.71206 19.2167 2.98862 19.2167 3.32832V4.70905Z" fill="black"/>
<path d="M16.24 20.5869V11.3661C16.24 10.6184 15.5958 10.0101 14.8041 10.0101C14.0121 10.0101 13.3679 10.6184 13.3679 11.3661V20.5869C13.3679 21.3346 14.0121 21.9429 14.8041 21.9429C15.5958 21.9431 16.24 21.3346 16.24 20.5869ZM14.1512 20.5869V11.3661C14.1512 11.0262 14.4441 10.7496 14.8041 10.7496C15.164 10.7496 15.4567 11.0262 15.4567 11.3661V20.5869C15.4567 20.9268 15.1638 21.2032 14.8041 21.2032C14.4441 21.2034 14.1512 20.9268 14.1512 20.5869Z" fill="black"/>
<path d="M6.63184 20.5869V11.3661C6.63184 10.6184 5.98749 10.0101 5.1957 10.0101C4.40391 10.0101 3.75977 10.6184 3.75977 11.3661V20.5869C3.75977 21.3346 4.40391 21.9429 5.1957 21.9429C5.98749 21.9429 6.63184 21.3346 6.63184 20.5869ZM4.54287 20.5869V11.3661C4.54287 11.0262 4.83576 10.7496 5.1957 10.7496C5.55564 10.7496 5.84832 11.0262 5.84832 11.3661V20.5869C5.84832 20.9268 5.55564 21.2032 5.1957 21.2032C4.83576 21.2034 4.54287 20.9268 4.54287 20.5869Z" fill="black"/>
<path d="M11.4358 20.5869V11.3661C11.4358 10.6184 10.7914 10.0101 9.99965 10.0101C9.20786 10.0101 8.56372 10.6184 8.56372 11.3661V20.5869C8.56372 21.3346 9.20786 21.9429 9.99965 21.9429C10.7914 21.9429 11.4358 21.3346 11.4358 20.5869ZM9.34703 20.5869V11.3661C9.34703 11.0262 9.63991 10.7496 9.99965 10.7496C10.3596 10.7496 10.6525 11.0262 10.6525 11.3661V20.5869C10.6525 20.9268 10.3596 21.2032 9.99965 21.2032C9.63971 21.2034 9.34703 20.9268 9.34703 20.5869Z" fill="black"/>
</svg>
