<svg width="37" height="44" viewBox="0 0 37 44" fill="none" xmlns="http://www.w3.org/2000/svg">
<path opacity="0.3" d="M20.5556 6.29992C29.8056 7.31808 37 15.1336 37 24.6248V43.0624H0V24.6248C0 15.1336 7.19444 7.31808 16.4444 6.29992V0.0413818H20.5556V6.29992ZM32.8889 38.9652V24.6248C32.8889 20.8215 31.3729 17.174 28.6745 14.4847C25.976 11.7953 22.3162 10.2845 18.5 10.2845C14.6838 10.2845 11.024 11.7953 8.32552 14.4847C5.62708 17.174 4.11111 20.8215 4.11111 24.6248V38.9652H32.8889ZM18.5 34.8679C15.7742 34.8679 13.16 33.7888 11.2325 31.8678C9.30506 29.9469 8.22222 27.3415 8.22222 24.6248C8.22222 21.9082 9.30506 19.3028 11.2325 17.3819C13.16 15.4609 15.7742 14.3817 18.5 14.3817C21.2258 14.3817 23.84 15.4609 25.7675 17.3819C27.6949 19.3028 28.7778 21.9082 28.7778 24.6248C28.7778 27.3415 27.6949 29.9469 25.7675 31.8678C23.84 33.7888 21.2258 34.8679 18.5 34.8679ZM18.5 30.7707C20.1355 30.7707 21.704 30.1232 22.8605 28.9706C24.017 27.818 24.6667 26.2548 24.6667 24.6248C24.6667 22.9949 24.017 21.4316 22.8605 20.2791C21.704 19.1265 20.1355 18.479 18.5 18.479C16.8645 18.479 15.296 19.1265 14.1395 20.2791C12.983 21.4316 12.3333 22.9949 12.3333 24.6248C12.3333 26.2548 12.983 27.818 14.1395 28.9706C15.296 30.1232 16.8645 30.7707 18.5 30.7707ZM18.5 26.6735C17.9548 26.6735 17.432 26.4576 17.0465 26.0734C16.661 25.6892 16.4444 25.1682 16.4444 24.6248C16.4444 24.0815 16.661 23.5604 17.0465 23.1762C17.432 22.7921 17.9548 22.5762 18.5 22.5762C19.0452 22.5762 19.568 22.7921 19.9535 23.1762C20.339 23.5604 20.5556 24.0815 20.5556 24.6248C20.5556 25.1682 20.339 25.6892 19.9535 26.0734C19.568 26.4576 19.0452 26.6735 18.5 26.6735Z" fill="black"/>
</svg>
