<svg width="40" height="44" viewBox="0 0 40 44" fill="none" xmlns="http://www.w3.org/2000/svg">
<g opacity="0.3">
<path d="M9.33341 42.0169V2.56697C9.33341 2.487 9.33341 2.38038 9.33341 2.30042C9.36007 2.06052 9.38674 1.84728 9.46674 1.63403H1.60008C1.09341 1.63403 0.666748 2.06052 0.666748 2.56697V42.0169C0.666748 42.5233 1.09341 42.9498 1.60008 42.9498H9.49341C9.41341 42.7366 9.36007 42.5233 9.36007 42.2834C9.33341 42.2035 9.33341 42.0969 9.33341 42.0169ZM2.26675 6.29872C2.26675 6.08548 2.45341 5.89889 2.66675 5.89889C2.88008 5.89889 3.06675 6.08548 3.06675 6.29872C3.06675 6.51196 2.88008 6.69855 2.66675 6.69855C2.45341 6.69855 2.26675 6.51196 2.26675 6.29872ZM2.66675 2.30042C3.41341 2.30042 4.00008 2.88683 4.00008 3.63318C4.00008 4.37953 3.41341 4.96595 2.66675 4.96595C1.92008 4.96595 1.33341 4.37953 1.33341 3.63318C1.33341 2.88683 1.92008 2.30042 2.66675 2.30042Z" fill="black"/>
<path d="M12.2667 42.2834H28.6134C28.5067 42.6566 28.1334 42.9498 27.7334 42.9498H10.9601C10.8267 42.7632 10.7201 42.5233 10.6934 42.2834C10.6667 42.2035 10.6667 42.0969 10.6667 42.0169V2.56697C10.6667 2.487 10.6667 2.38038 10.6934 2.30042C10.7201 2.06052 10.8267 1.82062 10.9601 1.63403H27.7334C28.1601 1.63403 28.5067 1.92724 28.6134 2.30042H12.2667C12.1334 2.30042 12.0001 2.40704 12.0001 2.56697V42.0169C12.0001 42.1502 12.1334 42.2834 12.2667 42.2834Z" fill="black"/>
<path d="M10.6933 42.2831C10.72 42.523 10.8267 42.7629 10.96 42.9495C11.2533 43.3493 11.7333 43.6159 12.2667 43.6159H27.7333C28.2666 43.6159 28.7466 43.3493 29.04 42.9495C29.1733 42.7629 29.28 42.523 29.3066 42.2831H10.6933ZM9.49333 42.9495C9.41333 42.7363 9.35999 42.523 9.35999 42.2831H1.62667C1.49333 42.2831 1.36 42.1499 1.36 42.0166V2.56667C1.36 2.40674 1.49333 2.30011 1.62667 2.30011H9.35999C9.38666 2.06022 9.41333 1.84697 9.49333 1.63373C9.57333 1.39383 9.67999 1.18059 9.81333 0.967346H1.6C0.719999 0.967346 0 1.68704 0 2.56667V42.0166C0 42.8962 0.719999 43.6159 1.6 43.6159H9.81333C9.67999 43.4027 9.57333 43.1894 9.49333 42.9495ZM29.04 1.63373C28.7466 1.2339 28.2666 0.967346 27.7333 0.967346H12.2667C11.7333 0.967346 11.2533 1.2339 10.96 1.63373C10.8267 1.82032 10.72 2.06022 10.6933 2.30011H29.3066C29.28 2.06022 29.1733 1.82032 29.04 1.63373Z" fill="black"/>
<path d="M38.4001 0.967346H12.2667C11.7334 0.967346 11.2534 1.2339 10.9601 1.63373C10.8267 1.82032 10.7201 2.06022 10.6934 2.30011C10.6667 2.38008 10.6667 2.4867 10.6667 2.56667V42.0166C10.6667 42.0965 10.6667 42.2032 10.6934 42.2831C10.7201 42.523 10.8267 42.7629 10.9601 42.9495C11.2534 43.3493 11.7334 43.6159 12.2667 43.6159H38.4001C39.2801 43.6159 40.0001 42.8962 40.0001 42.0166V2.56667C40.0001 1.68704 39.2801 0.967346 38.4001 0.967346ZM38.6667 42.0166C38.6667 42.1499 38.5334 42.2831 38.4001 42.2831H12.2667C12.1334 42.2831 12.0001 42.1499 12.0001 42.0166V2.56667C12.0001 2.40674 12.1334 2.30011 12.2667 2.30011H38.4001C38.5334 2.30011 38.6667 2.40674 38.6667 2.56667V42.0166Z" fill="white"/>
<path d="M38.3999 1.63403H12.2666C11.8399 1.63403 11.4933 1.92724 11.3866 2.30042C11.3599 2.38038 11.3333 2.487 11.3333 2.56697V42.0169C11.3333 42.0969 11.3333 42.2035 11.3866 42.2834C11.4933 42.6566 11.8666 42.9498 12.2666 42.9498H38.3999C38.9066 42.9498 39.3333 42.5233 39.3333 42.0169V2.56697C39.3333 2.06052 38.9066 1.63403 38.3999 1.63403ZM38.6666 42.0169C38.6666 42.1502 38.5333 42.2834 38.3999 42.2834H12.2666C12.1333 42.2834 11.9999 42.1502 11.9999 42.0169V2.56697C11.9999 2.40704 12.1333 2.30042 12.2666 2.30042H38.3999C38.5333 2.30042 38.6666 2.40704 38.6666 2.56697V42.0169Z" fill="white"/>
<path d="M38.4001 0.967346H12.2667C11.7334 0.967346 11.2534 1.2339 10.9601 1.63373C10.8267 1.82032 10.7201 2.06022 10.6934 2.30011C10.6667 2.38008 10.6667 2.4867 10.6667 2.56667V42.0166C10.6667 42.0965 10.6667 42.2032 10.6934 42.2831C10.7201 42.523 10.8267 42.7629 10.9601 42.9495C11.2534 43.3493 11.7334 43.6159 12.2667 43.6159H38.4001C39.2801 43.6159 40.0001 42.8962 40.0001 42.0166V2.56667C40.0001 1.68704 39.2801 0.967346 38.4001 0.967346ZM38.6667 42.0166C38.6667 42.1499 38.5334 42.2831 38.4001 42.2831H12.2667C12.1334 42.2831 12.0001 42.1499 12.0001 42.0166V2.56667C12.0001 2.40674 12.1334 2.30011 12.2667 2.30011H38.4001C38.5334 2.30011 38.6667 2.40674 38.6667 2.56667V42.0166Z" fill="black"/>
</g>
</svg>
