<svg width="30" height="45" viewBox="0 0 30 45" fill="none" xmlns="http://www.w3.org/2000/svg">
<g opacity="0.3">
<path d="M3.27215 8.87407C3.64871 8.87407 3.95397 8.56881 3.95397 8.19226C3.95397 7.8157 3.64871 7.51044 3.27215 7.51044C2.89559 7.51044 2.59033 7.8157 2.59033 8.19226C2.59033 8.56881 2.89559 8.87407 3.27215 8.87407Z" fill="black"/>
<path d="M3.27215 5.60205C2.89033 5.60205 2.59033 5.90205 2.59033 6.28387C2.59033 6.66569 2.89033 6.96569 3.27215 6.96569C3.65397 6.96569 3.95397 6.66569 3.95397 6.28387C3.95397 5.90205 3.65397 5.60205 3.27215 5.60205ZM3.27215 6.69296C3.05397 6.69296 2.86306 6.50205 2.86306 6.28387C2.86306 6.06569 3.05397 5.87478 3.27215 5.87478C3.49033 5.87478 3.68124 6.06569 3.68124 6.28387C3.68124 6.50205 3.49033 6.69296 3.27215 6.69296Z" fill="black"/>
<path d="M3.27215 5.0573C3.64871 5.0573 3.95397 4.75204 3.95397 4.37548C3.95397 3.99892 3.64871 3.69366 3.27215 3.69366C2.89559 3.69366 2.59033 3.99892 2.59033 4.37548C2.59033 4.75204 2.89559 5.0573 3.27215 5.0573Z" fill="black"/>
<path d="M7.06255 43.2228C6.89892 42.7866 6.8171 42.3504 6.8171 41.8597V3.69412C6.8171 3.20342 6.89892 2.76724 7.06255 2.33107C7.14437 2.08571 7.25347 1.86763 7.38983 1.64954H2.75346C1.63528 1.64954 0.708008 2.57642 0.708008 3.69412V41.8597C0.708008 42.9774 1.63528 43.9043 2.75346 43.9043H7.38983C7.22619 43.6862 7.14437 43.4682 7.06255 43.2228ZM1.90801 8.32852V4.23935C1.90801 3.47603 2.50801 2.87629 3.27164 2.87629C3.65346 2.87629 3.98074 3.03986 4.22619 3.28521C4.47165 3.53056 4.63528 3.85769 4.63528 4.23935V8.32852C4.63528 9.09183 4.03528 9.69158 3.27164 9.69158C2.50801 9.69158 1.90801 9.09183 1.90801 8.32852Z" fill="black"/>
<path d="M10.908 43.2228H20.6171C20.2353 43.6317 19.6898 43.9043 19.0898 43.9043H9.108C8.88982 43.7135 8.69891 43.4682 8.56255 43.2228C8.3171 42.8139 8.20801 42.3504 8.20801 41.8597V3.69412C8.20801 3.20342 8.34437 2.73998 8.56255 2.33107C8.69891 2.08571 8.88982 1.84036 9.108 1.64954H19.0898C19.6898 1.64954 20.2353 1.92215 20.6171 2.33107C20.808 2.52189 20.9444 2.76724 21.0262 3.01259C21.108 3.23068 21.1353 3.44877 21.1353 3.69412H14.9989C14.2353 3.69412 13.6353 3.09438 13.6353 2.33107H10.908C10.1444 2.33107 9.54437 2.93081 9.54437 3.69412V41.8597C9.54437 42.6231 10.1444 43.2228 10.908 43.2228Z" fill="black"/>
<path d="M21.7364 3.01236C21.6818 2.76701 21.5727 2.54892 21.4636 2.33083C21.3273 2.08548 21.1364 1.84013 20.9182 1.6493C20.4273 1.21312 19.8 0.967773 19.1182 0.967773H10.9364C10.2545 0.967773 9.62727 1.21312 9.13636 1.6493C8.91818 1.84013 8.72727 2.08548 8.59091 2.33083H19.0909C19.5818 2.33083 20.0454 2.60344 20.2636 3.01236C20.3727 3.20319 20.4545 3.44854 20.4545 3.69389H21.8182C21.8182 3.44854 21.7909 3.23045 21.7364 3.01236ZM8.53636 43.2226C8.67272 43.4679 8.86363 43.7133 9.08181 43.9041C9.57272 44.3403 10.2 44.5856 10.8818 44.5856H19.0636C19.7455 44.5856 20.3727 44.3403 20.8636 43.9041C21.0818 43.7133 21.2727 43.4679 21.4091 43.2226H8.53636ZM7.36363 43.9041C7.22727 43.686 7.11818 43.4679 7.03636 43.2226H2.72727C1.96364 43.2226 1.36364 42.6228 1.36364 41.8595V3.69389C1.36364 2.93058 1.96364 2.33083 2.72727 2.33083H7.06363C7.14545 2.08548 7.25454 1.86739 7.39091 1.6493C7.52727 1.40395 7.69091 1.18586 7.88181 0.967773H2.72727C1.22727 0.967773 0 2.19453 0 3.69389V41.8595C0 43.3589 1.22727 44.5856 2.72727 44.5856H7.85454C7.66363 44.3675 7.5 44.1494 7.36363 43.9041Z" fill="black"/>
<path d="M27.2716 0.967773H10.908C10.2262 0.967773 9.59891 1.21312 9.108 1.6493C8.88982 1.84013 8.69891 2.08548 8.56255 2.33083C8.3171 2.73975 8.20801 3.20319 8.20801 3.69389V41.8595C8.20801 42.3502 8.34437 42.8137 8.56255 43.2226C8.69891 43.4679 8.88982 43.7133 9.108 43.9041C9.59891 44.3403 10.2262 44.5856 10.908 44.5856H27.2716C28.7716 44.5856 29.9989 43.3589 29.9989 41.8595V3.69389C29.9989 2.19453 28.7716 0.967773 27.2716 0.967773ZM28.6353 41.8595C28.6353 42.6228 28.0353 43.2226 27.2716 43.2226H10.908C10.1444 43.2226 9.54437 42.6228 9.54437 41.8595V3.69389C9.54437 2.93058 10.1444 2.33083 10.908 2.33083H13.6353C13.6353 3.09414 14.2353 3.69389 14.9989 3.69389H23.1807C23.9444 3.69389 24.5444 3.09414 24.5444 2.33083H27.2716C28.0353 2.33083 28.6353 2.93058 28.6353 3.69389V41.8595Z" fill="white"/>
<path d="M27.2738 1.64954H10.9102C10.3102 1.64954 9.76474 1.92215 9.38293 2.33107C9.05565 2.68546 8.86475 3.17616 8.86475 3.69412V41.8597C8.86475 42.3777 9.05565 42.8684 9.38293 43.2228C9.76474 43.6317 10.3102 43.9043 10.9102 43.9043H27.2738C28.392 43.9043 29.3193 42.9774 29.3193 41.8597V3.69412C29.3193 2.57642 28.392 1.64954 27.2738 1.64954ZM28.6375 41.8597C28.6375 42.6231 28.0375 43.2228 27.2738 43.2228H10.9102C10.1466 43.2228 9.54656 42.6231 9.54656 41.8597V3.69412C9.54656 2.93081 10.1466 2.33107 10.9102 2.33107H13.6375C13.6375 3.09438 14.2375 3.69412 15.0011 3.69412H23.1829C23.9466 3.69412 24.5466 3.09438 24.5466 2.33107H27.2738C28.0375 2.33107 28.6375 2.93081 28.6375 3.69412V41.8597Z" fill="white"/>
<path d="M27.2716 0.967773H10.908C10.2262 0.967773 9.59891 1.21312 9.108 1.6493C8.88982 1.84013 8.69891 2.08548 8.56255 2.33083C8.3171 2.73975 8.20801 3.20319 8.20801 3.69389V41.8595C8.20801 42.3502 8.34437 42.8137 8.56255 43.2226C8.69891 43.4679 8.88982 43.7133 9.108 43.9041C9.59891 44.3403 10.2262 44.5856 10.908 44.5856H27.2716C28.7716 44.5856 29.9989 43.3589 29.9989 41.8595V3.69389C29.9989 2.19453 28.7716 0.967773 27.2716 0.967773ZM28.6353 41.8595C28.6353 42.6228 28.0353 43.2226 27.2716 43.2226H10.908C10.1444 43.2226 9.54437 42.6228 9.54437 41.8595V3.69389C9.54437 2.93058 10.1444 2.33083 10.908 2.33083H27.2716C28.0353 2.33083 28.6353 2.93058 28.6353 3.69389V41.8595Z" fill="black"/>
<path d="M15.0007 3.01317C14.6188 3.01317 14.3188 2.71317 14.3188 2.33135C14.3188 1.94954 14.6188 1.64954 15.0007 1.64954H23.1825C23.5643 1.64954 23.8643 1.94954 23.8643 2.33135C23.8643 2.71317 23.5643 3.01317 23.1825 3.01317H15.0007Z" fill="white"/>
<path d="M24.5443 2.33083C24.5443 3.09415 23.9443 3.69389 23.1807 3.69389H14.9989C14.2353 3.69389 13.6353 3.09415 13.6353 2.33083C13.6353 2.08548 13.6898 1.84013 13.8262 1.6493C14.0716 1.24039 14.508 0.967773 14.9989 0.967773H23.1807C23.6716 0.967773 24.1352 1.24039 24.3534 1.6493C24.4898 1.84013 24.5443 2.08548 24.5443 2.33083Z" fill="black"/>
<path d="M3.27215 8.87407C3.64871 8.87407 3.95397 8.56881 3.95397 8.19226C3.95397 7.8157 3.64871 7.51044 3.27215 7.51044C2.89559 7.51044 2.59033 7.8157 2.59033 8.19226C2.59033 8.56881 2.89559 8.87407 3.27215 8.87407Z" fill="white"/>
<path d="M3.27215 5.60205C2.89033 5.60205 2.59033 5.90205 2.59033 6.28387C2.59033 6.66569 2.89033 6.96569 3.27215 6.96569C3.65397 6.96569 3.95397 6.66569 3.95397 6.28387C3.95397 5.90205 3.65397 5.60205 3.27215 5.60205ZM3.27215 6.69296C3.05397 6.69296 2.86306 6.50205 2.86306 6.28387C2.86306 6.06569 3.05397 5.87478 3.27215 5.87478C3.49033 5.87478 3.68124 6.06569 3.68124 6.28387C3.68124 6.50205 3.49033 6.69296 3.27215 6.69296Z" fill="white"/>
<path d="M3.27215 5.0573C3.64871 5.0573 3.95397 4.75204 3.95397 4.37548C3.95397 3.99892 3.64871 3.69366 3.27215 3.69366C2.89559 3.69366 2.59033 3.99892 2.59033 4.37548C2.59033 4.75204 2.89559 5.0573 3.27215 5.0573Z" fill="white"/>
<path d="M3.27215 5.0573C3.64871 5.0573 3.95397 4.75204 3.95397 4.37548C3.95397 3.99892 3.64871 3.69366 3.27215 3.69366C2.89559 3.69366 2.59033 3.99892 2.59033 4.37548C2.59033 4.75204 2.89559 5.0573 3.27215 5.0573Z" fill="black"/>
<path d="M3.27215 5.60205C2.89033 5.60205 2.59033 5.90205 2.59033 6.28387C2.59033 6.66569 2.89033 6.96569 3.27215 6.96569C3.65397 6.96569 3.95397 6.66569 3.95397 6.28387C3.95397 5.90205 3.65397 5.60205 3.27215 5.60205ZM3.27215 6.69296C3.05397 6.69296 2.86306 6.50205 2.86306 6.28387C2.86306 6.06569 3.05397 5.87478 3.27215 5.87478C3.49033 5.87478 3.68124 6.06569 3.68124 6.28387C3.68124 6.50205 3.49033 6.69296 3.27215 6.69296Z" fill="black"/>
<path d="M3.27215 8.87407C3.64871 8.87407 3.95397 8.56881 3.95397 8.19226C3.95397 7.8157 3.64871 7.51044 3.27215 7.51044C2.89559 7.51044 2.59033 7.8157 2.59033 8.19226C2.59033 8.56881 2.89559 8.87407 3.27215 8.87407Z" fill="black"/>
</g>
</svg>
