<svg width="48" height="42" viewBox="0 0 48 42" fill="none" xmlns="http://www.w3.org/2000/svg">
<g opacity="0.3">
<path d="M45.9337 0.966492H1.42063C0.639284 0.966492 0 1.6055 0 2.38652V27.947C0 28.728 0.639284 29.367 1.42063 29.367H2.36772V28.1837H1.42063C1.30224 28.1837 1.18386 28.0653 1.18386 27.947V2.38652C1.18386 2.24452 1.30224 2.14985 1.42063 2.14985H45.9337C46.0521 2.14985 46.1705 2.24452 46.1705 2.38652V27.947C46.1705 28.0653 46.0521 28.1837 45.9337 28.1837H44.9866V29.367H45.9337C46.7151 29.367 47.3543 28.728 47.3543 27.947V2.38652C47.3543 1.6055 46.7151 0.966492 45.9337 0.966492Z" fill="black"/>
<path d="M45.9337 0.966492H1.42063C0.639284 0.966492 0 1.6055 0 2.38652V27.947C0 28.728 0.639284 29.367 1.42063 29.367H2.36772V28.1837H1.42063C1.30224 28.1837 1.18386 28.0653 1.18386 27.947V2.38652C1.18386 2.24452 1.30224 2.14985 1.42063 2.14985H45.9337C46.0521 2.14985 46.1705 2.24452 46.1705 2.38652V27.947C46.1705 28.0653 46.0521 28.1837 45.9337 28.1837H44.9866V29.367H45.9337C46.7151 29.367 47.3543 28.728 47.3543 27.947V2.38652C47.3543 1.6055 46.7151 0.966492 45.9337 0.966492Z" fill="black"/>
<path d="M45.9337 29.367H44.9866V28.1837H2.36772V29.367H1.42063C0.639284 29.367 0 28.728 0 27.947V32.6804C0 33.4615 0.639284 34.1005 1.42063 34.1005H45.9337C46.7151 34.1005 47.3543 33.4615 47.3543 32.6804V27.947C47.3543 28.728 46.7151 29.367 45.9337 29.367ZM24.861 31.9704C24.861 32.2308 24.6479 32.4438 24.3875 32.4438H22.9669C22.7064 32.4438 22.4933 32.2308 22.4933 31.9704V30.5504C22.4933 30.2901 22.7064 30.0771 22.9669 30.0771H24.3875C24.6479 30.0771 24.861 30.2901 24.861 30.5504V31.9704Z" fill="black"/>
<path d="M28.9335 36.4672H19.0128C18.0657 36.4672 17.7579 36.7275 17.7105 37.0588C17.5448 38.1949 16.8818 39.3072 16.3136 40.0646C15.9821 40.5379 16.3136 41.1769 16.8818 41.1769H30.4252C30.9934 41.1769 31.3486 40.5142 30.9934 40.0646C30.4252 39.2836 29.7859 38.1949 29.5965 37.0588C29.5965 36.7275 29.2887 36.4672 28.9335 36.4672Z" fill="black"/>
</g>
</svg>
