<svg width="26" height="44" viewBox="0 0 26 44" fill="none" xmlns="http://www.w3.org/2000/svg">
<g opacity="0.4">
<path d="M20.5054 11.792C18.6559 12.5157 15.5466 13.159 12.5981 13.159V11.0415H17.959C18.8971 11.0415 19.7817 11.3095 20.5054 11.792Z" fill="black"/>
<path d="M22.0331 10.9343C21.9795 10.9879 21.9258 11.0683 21.8454 11.1219C20.8001 10.2377 19.4598 9.72863 17.9856 9.72863H12.6248V0.994202H15.3052C17.0207 0.994202 18.4681 1.47647 18.6825 3.16442C18.6825 3.16442 18.9774 6.62068 20.7197 9.03203C21.0949 9.54109 21.5238 9.99656 22.0331 10.3717C22.1939 10.5324 22.1939 10.72 22.0331 10.9343Z" fill="black"/>
<path d="M12.5978 0.994141V9.70179H7.23701C5.76279 9.70179 4.42257 10.2376 3.37721 11.095C3.2968 11.0414 3.2432 10.961 3.1896 10.9075C3.02877 10.6931 3.02876 10.5056 3.24319 10.3448C3.75247 9.96972 4.18134 9.51425 4.5566 9.00518C6.29887 6.59383 6.59371 3.13756 6.59371 3.13756C6.80814 1.44962 8.25557 0.967346 9.97104 0.967346H12.5978V0.994141Z" fill="black"/>
<path d="M12.5979 11.0414V13.1589C9.64944 13.1589 6.54016 12.4888 4.69067 11.7919C5.41439 11.3094 6.29892 11.0414 7.23707 11.0414H12.5979Z" fill="black"/>
<path d="M20.5061 33.0656C19.7824 33.5481 18.8978 33.8161 17.9597 33.8161H12.5989V31.6986C15.5473 31.6986 18.6566 32.3419 20.5061 33.0656Z" fill="black"/>
<path d="M21.9793 34.4859C21.47 34.861 21.0412 35.3165 20.6659 35.8256C18.9236 38.2369 18.6288 41.6932 18.6288 41.6932C18.4144 43.3811 16.9669 43.8634 15.2515 43.8634H12.571V35.1557H17.9319C19.4061 35.1557 20.7463 34.6199 21.7917 33.7625C21.8721 33.8161 21.9257 33.8965 21.9793 33.9501C22.1937 34.1376 22.1937 34.3252 21.9793 34.4859Z" fill="black"/>
<path d="M12.5979 31.6986V33.8161H7.23707C6.29892 33.8161 5.41439 33.5481 4.69067 33.0656C6.54016 32.3419 9.64944 31.6986 12.5979 31.6986Z" fill="black"/>
<path d="M12.598 35.1557V43.8634H9.91755C8.20209 43.8634 6.75468 43.3811 6.54024 41.6932C6.54024 41.6932 6.24539 38.2369 4.50312 35.8256C4.12787 35.3165 3.69901 34.861 3.18973 34.4859C2.9753 34.3252 2.9753 34.1376 3.13612 33.9233C3.18973 33.8697 3.24334 33.7893 3.32375 33.7357C4.36911 34.6199 5.70931 35.1289 7.18353 35.1289H12.598V35.1557Z" fill="black"/>
<path d="M20.505 11.792C19.7813 11.3097 18.8967 11.0418 17.9586 11.0418H7.23696C6.29881 11.0418 5.41428 11.3097 4.69056 11.792C3.40397 12.6226 2.54624 14.0962 2.54624 15.7306V29.1269C2.54624 30.7881 3.40397 32.2349 4.69056 33.0655C5.41428 33.5477 6.29881 33.8157 7.23696 33.8157H17.9586C18.8967 33.8157 19.7813 33.5477 20.505 33.0655C21.7916 32.2349 22.6493 30.7881 22.6493 29.1269V15.7306C22.6493 14.0694 21.7916 12.6226 20.505 11.792ZM10.4802 26.1261C10.3998 25.8582 10.4266 25.5635 10.6143 25.3224C10.7751 25.108 11.0431 24.9741 11.3112 24.9741C11.3916 24.9741 11.4988 24.9741 11.5792 25.0276C11.7937 25.0812 12.0349 25.108 12.2761 25.108C12.8122 25.108 13.3483 24.9473 13.7772 24.6258C14.206 24.3042 14.5545 23.8488 14.7153 23.3397C14.7957 23.0718 14.8493 22.8306 14.8493 22.5359C14.8493 22.268 14.7957 22.0001 14.7153 21.7589C14.5545 21.2499 14.2328 20.7944 13.7772 20.4729C13.5895 20.3389 13.3751 20.2049 13.1607 20.1514C12.7854 20.0174 12.571 19.6959 12.571 19.3208C12.571 19.0261 12.705 18.7849 12.9462 18.6242C13.1607 18.4634 13.4287 18.4098 13.6699 18.4902C13.6967 18.4902 13.7235 18.517 13.7504 18.517C13.8576 18.5438 13.938 18.5974 14.0184 18.6242C14.0988 18.6778 14.206 18.7045 14.2864 18.7581C14.3668 18.8117 14.4473 18.8385 14.5277 18.8921C14.5545 18.8921 14.5545 18.9189 14.5813 18.9189C14.6617 18.9725 14.7421 19.0261 14.8225 19.0796C15.5462 19.6155 16.1091 20.3657 16.3772 21.2231C16.5112 21.6518 16.5916 22.0804 16.5916 22.5359C16.5916 22.9914 16.5112 23.4469 16.3772 23.8756C16.1091 24.7329 15.5462 25.4831 14.8225 26.019C14.0988 26.5548 13.2143 26.8496 12.3029 26.8496C12.1957 26.8496 12.0617 26.8496 11.9545 26.8228C11.9009 26.8228 11.8473 26.8228 11.7937 26.796C11.74 26.796 11.6596 26.7692 11.606 26.7692C11.5524 26.7692 11.4988 26.7424 11.472 26.7424C11.4184 26.7424 11.3648 26.7156 11.3112 26.7156C11.2576 26.7156 11.204 26.6888 11.1503 26.662H11.1236C11.0967 26.662 11.0967 26.662 11.0699 26.6352C11.0699 26.6352 11.0699 26.6352 11.0431 26.6352C10.7483 26.5816 10.5607 26.3941 10.4802 26.1261ZM10.8555 27.1711H10.8823C10.9091 27.1711 10.9359 27.1711 10.9627 27.1979C11.0163 27.2246 11.0967 27.2246 11.1503 27.2514C11.204 27.2782 11.2844 27.2782 11.338 27.305C11.3916 27.305 11.4452 27.3318 11.4988 27.3318C11.7669 27.3854 12.0349 27.3854 12.3029 27.3854C13.3483 27.3854 14.3132 27.0639 15.1442 26.4477C15.9483 25.8582 16.5916 25.0008 16.8864 24.0363C17.0473 23.554 17.1277 23.045 17.1277 22.5359C17.1277 22.0269 17.0473 21.5178 16.8864 21.0355C16.5648 20.071 15.9483 19.2136 15.1442 18.6242C15.0638 18.5706 15.0102 18.517 14.9297 18.4902C14.6617 18.3027 14.3669 18.1687 14.0452 18.0347C14.0184 18.0079 13.9648 18.0079 13.938 17.9812H13.9112C13.6968 17.9008 13.4823 17.8472 13.2411 17.7936C12.839 17.7132 12.571 17.3649 12.571 16.9362C12.571 16.6683 12.6782 16.4272 12.8926 16.2664C13.0802 16.1324 13.2947 16.0521 13.5091 16.0789C13.5627 16.0789 13.5895 16.1057 13.6431 16.1057C13.7236 16.1057 13.804 16.1324 13.8844 16.1592C13.938 16.1592 13.9916 16.186 14.0452 16.186C14.0988 16.2128 14.1792 16.2128 14.2328 16.2396C14.2864 16.2664 14.3668 16.2932 14.4205 16.2932C14.5277 16.32 14.6617 16.3736 14.7689 16.4272C15.0369 16.5343 15.2782 16.6415 15.5194 16.7755C15.573 16.8023 15.6266 16.8291 15.6803 16.8559C15.7607 16.9094 15.8679 16.963 15.9483 17.0166C16.0287 17.0702 16.1091 17.1238 16.1895 17.1774C17.3153 17.9812 18.1462 19.16 18.5751 20.4729C18.7895 21.1159 18.8967 21.8125 18.8967 22.5091C18.8967 23.2057 18.7895 23.9024 18.5751 24.5454C18.5483 24.599 18.5215 24.6793 18.5215 24.7329C18.4947 24.7865 18.4679 24.8669 18.4411 24.9205C18.4143 24.9741 18.3875 25.0544 18.3607 25.108C18.2803 25.3224 18.173 25.5367 18.0658 25.7243C18.039 25.7778 17.9854 25.8582 17.9586 25.9118C17.905 25.9922 17.8514 26.0994 17.771 26.1797C17.7174 26.2333 17.6906 26.3137 17.6369 26.3673C17.5833 26.4477 17.5029 26.5548 17.4225 26.6352C17.3689 26.7156 17.2885 26.796 17.2349 26.8496C17.2081 26.8763 17.1813 26.9299 17.1545 26.9567C17.0741 27.0371 16.9936 27.1175 16.9132 27.1979C16.6988 27.4122 16.4308 27.6265 16.1895 27.8141C15.0638 28.6447 13.7236 29.0733 12.3297 29.0733C10.9359 29.0733 9.59571 28.6447 8.46994 27.8141C7.71942 27.2514 7.04932 26.528 6.59365 25.7243C6.45963 25.5099 6.45964 25.242 6.54006 25.0008C6.64727 24.7597 6.83489 24.5722 7.10293 24.4918C7.18335 24.465 7.29056 24.4382 7.37098 24.4382C7.66582 24.4382 7.96066 24.599 8.12149 24.8669C8.46994 25.4831 8.92562 26.019 9.48851 26.4209C9.89057 26.796 10.373 27.0371 10.8555 27.1711ZM18.4679 28.9126C18.2803 29.1001 18.039 29.1805 17.771 29.1537C17.5029 29.1269 17.2885 28.993 17.1277 28.8054C16.8596 28.4571 16.9132 27.9748 17.2349 27.6533C17.2617 27.6265 17.2617 27.6265 17.2885 27.5997C17.3421 27.5462 17.4225 27.4658 17.4761 27.3854C17.5833 27.2782 17.6638 27.1711 17.7442 27.0639C17.8246 26.9567 17.9318 26.8495 18.0122 26.7424C18.0658 26.662 18.1194 26.5816 18.173 26.5012C18.2266 26.4477 18.2534 26.3673 18.3071 26.2869C18.3339 26.2333 18.3875 26.1797 18.4143 26.0994C18.4411 26.0458 18.4679 26.019 18.4947 25.9654C18.5215 25.9118 18.5751 25.8314 18.6019 25.7778C18.6287 25.751 18.6287 25.6975 18.6555 25.6707C18.7091 25.5903 18.7359 25.4831 18.7895 25.4027C18.8967 25.1884 18.9772 24.9741 19.0308 24.7597C19.272 24.0631 19.3792 23.3129 19.3792 22.5627C19.3792 21.8125 19.272 21.0623 19.0308 20.3657C18.5751 18.9457 17.6638 17.6864 16.4576 16.8023C16.3772 16.7487 16.2968 16.6683 16.1895 16.6147C16.1627 16.5879 16.1359 16.5611 16.0823 16.5611C15.8947 16.454 15.7071 16.3468 15.5194 16.2396C15.4658 16.2128 15.4122 16.186 15.3586 16.1592C15.1978 16.0789 15.0638 15.9985 14.8761 15.9449C14.8225 15.9181 14.7689 15.8913 14.7153 15.8913C14.6349 15.8645 14.5545 15.8377 14.4741 15.8109C14.4205 15.8109 14.3937 15.7841 14.34 15.7573C14.2328 15.7305 14.0988 15.677 13.9648 15.6502C13.8844 15.6234 13.804 15.5966 13.7236 15.5966H13.6967C13.6699 15.5966 13.67 15.5966 13.6431 15.5966C13.6163 15.5966 13.5895 15.5966 13.5895 15.5966C13.4823 15.5698 13.3751 15.5698 13.2679 15.543C12.839 15.4894 12.5174 15.1143 12.5174 14.6856C12.5174 14.4445 12.6246 14.2034 12.8122 14.0426C12.973 13.9087 13.1875 13.8283 13.4019 13.8283C13.4555 13.8283 13.4823 13.8283 13.5359 13.8283C14.9565 14.0426 16.2968 14.5785 17.4761 15.4358C18.9772 16.5343 20.1297 18.1151 20.6926 19.8566C20.9875 20.7408 21.1215 21.6517 21.1215 22.5895C21.1215 23.5272 20.9875 24.4382 20.6926 25.3224C20.2906 26.662 19.5132 27.8945 18.4679 28.9126ZM20.505 11.792C19.7813 11.3097 18.8967 11.0418 17.9586 11.0418H7.23696C6.29881 11.0418 5.41428 11.3097 4.69056 11.792C3.40397 12.6226 2.54624 14.0962 2.54624 15.7306V29.1269C2.54624 30.7881 3.40397 32.2349 4.69056 33.0655C5.41428 33.5477 6.29881 33.8157 7.23696 33.8157H17.9586C18.8967 33.8157 19.7813 33.5477 20.505 33.0655C21.7916 32.2349 22.6493 30.7881 22.6493 29.1269V15.7306C22.6493 14.0694 21.7916 12.6226 20.505 11.792ZM10.4802 26.1261C10.3998 25.8582 10.4266 25.5635 10.6143 25.3224C10.7751 25.108 11.0431 24.9741 11.3112 24.9741C11.3916 24.9741 11.4988 24.9741 11.5792 25.0276C11.7937 25.0812 12.0349 25.108 12.2761 25.108C12.8122 25.108 13.3483 24.9473 13.7772 24.6258C14.206 24.3042 14.5545 23.8488 14.7153 23.3397C14.7957 23.0718 14.8493 22.8306 14.8493 22.5359C14.8493 22.268 14.7957 22.0001 14.7153 21.7589C14.5545 21.2499 14.2328 20.7944 13.7772 20.4729C13.5895 20.3389 13.3751 20.2049 13.1607 20.1514C12.7854 20.0174 12.571 19.6959 12.571 19.3208C12.571 19.0261 12.705 18.7849 12.9462 18.6242C13.1607 18.4634 13.4287 18.4098 13.6699 18.4902C13.6967 18.4902 13.7235 18.517 13.7504 18.517C13.8576 18.5438 13.938 18.5974 14.0184 18.6242C14.0988 18.6778 14.206 18.7045 14.2864 18.7581C14.3668 18.8117 14.4473 18.8385 14.5277 18.8921C14.5545 18.8921 14.5545 18.9189 14.5813 18.9189C14.6617 18.9725 14.7421 19.0261 14.8225 19.0796C15.5462 19.6155 16.1091 20.3657 16.3772 21.2231C16.5112 21.6518 16.5916 22.0804 16.5916 22.5359C16.5916 22.9914 16.5112 23.4469 16.3772 23.8756C16.1091 24.7329 15.5462 25.4831 14.8225 26.019C14.0988 26.5548 13.2143 26.8496 12.3029 26.8496C12.1957 26.8496 12.0617 26.8496 11.9545 26.8228C11.9009 26.8228 11.8473 26.8228 11.7937 26.796C11.74 26.796 11.6596 26.7692 11.606 26.7692C11.5524 26.7692 11.4988 26.7424 11.472 26.7424C11.4184 26.7424 11.3648 26.7156 11.3112 26.7156C11.2576 26.7156 11.204 26.6888 11.1503 26.662H11.1236C11.0967 26.662 11.0967 26.662 11.0699 26.6352C11.0699 26.6352 11.0699 26.6352 11.0431 26.6352C10.7483 26.5816 10.5607 26.3941 10.4802 26.1261ZM10.8555 27.1711H10.8823C10.9091 27.1711 10.9359 27.1711 10.9627 27.1979C11.0163 27.2246 11.0967 27.2246 11.1503 27.2514C11.204 27.2782 11.2844 27.2782 11.338 27.305C11.3916 27.305 11.4452 27.3318 11.4988 27.3318C11.7669 27.3854 12.0349 27.3854 12.3029 27.3854C13.3483 27.3854 14.3132 27.0639 15.1442 26.4477C15.9483 25.8582 16.5916 25.0008 16.8864 24.0363C17.0473 23.554 17.1277 23.045 17.1277 22.5359C17.1277 22.0269 17.0473 21.5178 16.8864 21.0355C16.5648 20.071 15.9483 19.2136 15.1442 18.6242C15.0638 18.5706 15.0102 18.517 14.9297 18.4902C14.6617 18.3027 14.3669 18.1687 14.0452 18.0347C14.0184 18.0079 13.9648 18.0079 13.938 17.9812H13.9112C13.6968 17.9008 13.4823 17.8472 13.2411 17.7936C12.839 17.7132 12.571 17.3649 12.571 16.9362C12.571 16.6683 12.6782 16.4272 12.8926 16.2664C13.0802 16.1324 13.2947 16.0521 13.5091 16.0789C13.5627 16.0789 13.5895 16.1057 13.6431 16.1057C13.7236 16.1057 13.804 16.1324 13.8844 16.1592C13.938 16.1592 13.9916 16.186 14.0452 16.186C14.0988 16.2128 14.1792 16.2128 14.2328 16.2396C14.2864 16.2664 14.3668 16.2932 14.4205 16.2932C14.5277 16.32 14.6617 16.3736 14.7689 16.4272C15.0369 16.5343 15.2782 16.6415 15.5194 16.7755C15.573 16.8023 15.6266 16.8291 15.6803 16.8559C15.7607 16.9094 15.8679 16.963 15.9483 17.0166C16.0287 17.0702 16.1091 17.1238 16.1895 17.1774C17.3153 17.9812 18.1462 19.16 18.5751 20.4729C18.7895 21.1159 18.8967 21.8125 18.8967 22.5091C18.8967 23.2057 18.7895 23.9024 18.5751 24.5454C18.5483 24.599 18.5215 24.6793 18.5215 24.7329C18.4947 24.7865 18.4679 24.8669 18.4411 24.9205C18.4143 24.9741 18.3875 25.0544 18.3607 25.108C18.2803 25.3224 18.173 25.5367 18.0658 25.7243C18.039 25.7778 17.9854 25.8582 17.9586 25.9118C17.905 25.9922 17.8514 26.0994 17.771 26.1797C17.7174 26.2333 17.6906 26.3137 17.6369 26.3673C17.5833 26.4477 17.5029 26.5548 17.4225 26.6352C17.3689 26.7156 17.2885 26.796 17.2349 26.8496C17.2081 26.8763 17.1813 26.9299 17.1545 26.9567C17.0741 27.0371 16.9936 27.1175 16.9132 27.1979C16.6988 27.4122 16.4308 27.6265 16.1895 27.8141C15.0638 28.6447 13.7236 29.0733 12.3297 29.0733C10.9359 29.0733 9.59571 28.6447 8.46994 27.8141C7.71942 27.2514 7.04932 26.528 6.59365 25.7243C6.45963 25.5099 6.45964 25.242 6.54006 25.0008C6.64727 24.7597 6.83489 24.5722 7.10293 24.4918C7.18335 24.465 7.29056 24.4382 7.37098 24.4382C7.66582 24.4382 7.96066 24.599 8.12149 24.8669C8.46994 25.4831 8.92562 26.019 9.48851 26.4209C9.89057 26.796 10.373 27.0371 10.8555 27.1711ZM18.4679 28.9126C18.2803 29.1001 18.039 29.1805 17.771 29.1537C17.5029 29.1269 17.2885 28.993 17.1277 28.8054C16.8596 28.4571 16.9132 27.9748 17.2349 27.6533C17.2617 27.6265 17.2617 27.6265 17.2885 27.5997C17.3421 27.5462 17.4225 27.4658 17.4761 27.3854C17.5833 27.2782 17.6638 27.1711 17.7442 27.0639C17.8246 26.9567 17.9318 26.8495 18.0122 26.7424C18.0658 26.662 18.1194 26.5816 18.173 26.5012C18.2266 26.4477 18.2534 26.3673 18.3071 26.2869C18.3339 26.2333 18.3875 26.1797 18.4143 26.0994C18.4411 26.0458 18.4679 26.019 18.4947 25.9654C18.5215 25.9118 18.5751 25.8314 18.6019 25.7778C18.6287 25.751 18.6287 25.6975 18.6555 25.6707C18.7091 25.5903 18.7359 25.4831 18.7895 25.4027C18.8967 25.1884 18.9772 24.9741 19.0308 24.7597C19.272 24.0631 19.3792 23.3129 19.3792 22.5627C19.3792 21.8125 19.272 21.0623 19.0308 20.3657C18.5751 18.9457 17.6638 17.6864 16.4576 16.8023C16.3772 16.7487 16.2968 16.6683 16.1895 16.6147C16.1627 16.5879 16.1359 16.5611 16.0823 16.5611C15.8947 16.454 15.7071 16.3468 15.5194 16.2396C15.4658 16.2128 15.4122 16.186 15.3586 16.1592C15.1978 16.0789 15.0638 15.9985 14.8761 15.9449C14.8225 15.9181 14.7689 15.8913 14.7153 15.8913C14.6349 15.8645 14.5545 15.8377 14.4741 15.8109C14.4205 15.8109 14.3937 15.7841 14.34 15.7573C14.2328 15.7305 14.0988 15.677 13.9648 15.6502C13.8844 15.6234 13.804 15.5966 13.7236 15.5966H13.6967C13.6699 15.5966 13.67 15.5966 13.6431 15.5966C13.6163 15.5966 13.5895 15.5966 13.5895 15.5966C13.4823 15.5698 13.3751 15.5698 13.2679 15.543C12.839 15.4894 12.5174 15.1143 12.5174 14.6856C12.5174 14.4445 12.6246 14.2034 12.8122 14.0426C12.973 13.9087 13.1875 13.8283 13.4019 13.8283C13.4555 13.8283 13.4823 13.8283 13.5359 13.8283C14.9565 14.0426 16.2968 14.5785 17.4761 15.4358C18.9772 16.5343 20.1297 18.1151 20.6926 19.8566C20.9875 20.7408 21.1215 21.6517 21.1215 22.5895C21.1215 23.5272 20.9875 24.4382 20.6926 25.3224C20.2906 26.662 19.5132 27.8945 18.4679 28.9126ZM20.505 11.792C19.7813 11.3097 18.8967 11.0418 17.9586 11.0418H7.23696C6.29881 11.0418 5.41428 11.3097 4.69056 11.792C3.40397 12.6226 2.54624 14.0962 2.54624 15.7306V29.1269C2.54624 30.7881 3.40397 32.2349 4.69056 33.0655C5.41428 33.5477 6.29881 33.8157 7.23696 33.8157H17.9586C18.8967 33.8157 19.7813 33.5477 20.505 33.0655C21.7916 32.2349 22.6493 30.7881 22.6493 29.1269V15.7306C22.6493 14.0694 21.7916 12.6226 20.505 11.792ZM10.4802 26.1261C10.3998 25.8582 10.4266 25.5635 10.6143 25.3224C10.7751 25.108 11.0431 24.9741 11.3112 24.9741C11.3916 24.9741 11.4988 24.9741 11.5792 25.0276C11.7937 25.0812 12.0349 25.108 12.2761 25.108C12.8122 25.108 13.3483 24.9473 13.7772 24.6258C14.206 24.3042 14.5545 23.8488 14.7153 23.3397C14.7957 23.0718 14.8493 22.8306 14.8493 22.5359C14.8493 22.268 14.7957 22.0001 14.7153 21.7589C14.5545 21.2499 14.2328 20.7944 13.7772 20.4729C13.5895 20.3389 13.3751 20.2049 13.1607 20.1514C12.7854 20.0174 12.571 19.6959 12.571 19.3208C12.571 19.0261 12.705 18.7849 12.9462 18.6242C13.1607 18.4634 13.4287 18.4098 13.6699 18.4902C13.6967 18.4902 13.7235 18.517 13.7504 18.517C13.8576 18.5438 13.938 18.5974 14.0184 18.6242C14.0988 18.6778 14.206 18.7045 14.2864 18.7581C14.3668 18.8117 14.4473 18.8385 14.5277 18.8921C14.5545 18.8921 14.5545 18.9189 14.5813 18.9189C14.6617 18.9725 14.7421 19.0261 14.8225 19.0796C15.5462 19.6155 16.1091 20.3657 16.3772 21.2231C16.5112 21.6518 16.5916 22.0804 16.5916 22.5359C16.5916 22.9914 16.5112 23.4469 16.3772 23.8756C16.1091 24.7329 15.5462 25.4831 14.8225 26.019C14.0988 26.5548 13.2143 26.8496 12.3029 26.8496C12.1957 26.8496 12.0617 26.8496 11.9545 26.8228C11.9009 26.8228 11.8473 26.8228 11.7937 26.796C11.74 26.796 11.6596 26.7692 11.606 26.7692C11.5524 26.7692 11.4988 26.7424 11.472 26.7424C11.4184 26.7424 11.3648 26.7156 11.3112 26.7156C11.2576 26.7156 11.204 26.6888 11.1503 26.662H11.1236C11.0967 26.662 11.0967 26.662 11.0699 26.6352C11.0699 26.6352 11.0699 26.6352 11.0431 26.6352C10.7483 26.5816 10.5607 26.3941 10.4802 26.1261ZM10.8555 27.1711H10.8823C10.9091 27.1711 10.9359 27.1711 10.9627 27.1979C11.0163 27.2246 11.0967 27.2246 11.1503 27.2514C11.204 27.2782 11.2844 27.2782 11.338 27.305C11.3916 27.305 11.4452 27.3318 11.4988 27.3318C11.7669 27.3854 12.0349 27.3854 12.3029 27.3854C13.3483 27.3854 14.3132 27.0639 15.1442 26.4477C15.9483 25.8582 16.5916 25.0008 16.8864 24.0363C17.0473 23.554 17.1277 23.045 17.1277 22.5359C17.1277 22.0269 17.0473 21.5178 16.8864 21.0355C16.5648 20.071 15.9483 19.2136 15.1442 18.6242C15.0638 18.5706 15.0102 18.517 14.9297 18.4902C14.6617 18.3027 14.3669 18.1687 14.0452 18.0347C14.0184 18.0079 13.9648 18.0079 13.938 17.9812H13.9112C13.6968 17.9008 13.4823 17.8472 13.2411 17.7936C12.839 17.7132 12.571 17.3649 12.571 16.9362C12.571 16.6683 12.6782 16.4272 12.8926 16.2664C13.0802 16.1324 13.2947 16.0521 13.5091 16.0789C13.5627 16.0789 13.5895 16.1057 13.6431 16.1057C13.7236 16.1057 13.804 16.1324 13.8844 16.1592C13.938 16.1592 13.9916 16.186 14.0452 16.186C14.0988 16.2128 14.1792 16.2128 14.2328 16.2396C14.2864 16.2664 14.3668 16.2932 14.4205 16.2932C14.5277 16.32 14.6617 16.3736 14.7689 16.4272C15.0369 16.5343 15.2782 16.6415 15.5194 16.7755C15.573 16.8023 15.6266 16.8291 15.6803 16.8559C15.7607 16.9094 15.8679 16.963 15.9483 17.0166C16.0287 17.0702 16.1091 17.1238 16.1895 17.1774C17.3153 17.9812 18.1462 19.16 18.5751 20.4729C18.7895 21.1159 18.8967 21.8125 18.8967 22.5091C18.8967 23.2057 18.7895 23.9024 18.5751 24.5454C18.5483 24.599 18.5215 24.6793 18.5215 24.7329C18.4947 24.7865 18.4679 24.8669 18.4411 24.9205C18.4143 24.9741 18.3875 25.0544 18.3607 25.108C18.2803 25.3224 18.173 25.5367 18.0658 25.7243C18.039 25.7778 17.9854 25.8582 17.9586 25.9118C17.905 25.9922 17.8514 26.0994 17.771 26.1797C17.7174 26.2333 17.6906 26.3137 17.6369 26.3673C17.5833 26.4477 17.5029 26.5548 17.4225 26.6352C17.3689 26.7156 17.2885 26.796 17.2349 26.8496C17.2081 26.8763 17.1813 26.9299 17.1545 26.9567C17.0741 27.0371 16.9936 27.1175 16.9132 27.1979C16.6988 27.4122 16.4308 27.6265 16.1895 27.8141C15.0638 28.6447 13.7236 29.0733 12.3297 29.0733C10.9359 29.0733 9.59571 28.6447 8.46994 27.8141C7.71942 27.2514 7.04932 26.528 6.59365 25.7243C6.45963 25.5099 6.45964 25.242 6.54006 25.0008C6.64727 24.7597 6.83489 24.5722 7.10293 24.4918C7.18335 24.465 7.29056 24.4382 7.37098 24.4382C7.66582 24.4382 7.96066 24.599 8.12149 24.8669C8.46994 25.4831 8.92562 26.019 9.48851 26.4209C9.89057 26.796 10.373 27.0371 10.8555 27.1711ZM18.4679 28.9126C18.2803 29.1001 18.039 29.1805 17.771 29.1537C17.5029 29.1269 17.2885 28.993 17.1277 28.8054C16.8596 28.4571 16.9132 27.9748 17.2349 27.6533C17.2617 27.6265 17.2617 27.6265 17.2885 27.5997C17.3421 27.5462 17.4225 27.4658 17.4761 27.3854C17.5833 27.2782 17.6638 27.1711 17.7442 27.0639C17.8246 26.9567 17.9318 26.8495 18.0122 26.7424C18.0658 26.662 18.1194 26.5816 18.173 26.5012C18.2266 26.4477 18.2534 26.3673 18.3071 26.2869C18.3339 26.2333 18.3875 26.1797 18.4143 26.0994C18.4411 26.0458 18.4679 26.019 18.4947 25.9654C18.5215 25.9118 18.5751 25.8314 18.6019 25.7778C18.6287 25.751 18.6287 25.6975 18.6555 25.6707C18.7091 25.5903 18.7359 25.4831 18.7895 25.4027C18.8967 25.1884 18.9772 24.9741 19.0308 24.7597C19.272 24.0631 19.3792 23.3129 19.3792 22.5627C19.3792 21.8125 19.272 21.0623 19.0308 20.3657C18.5751 18.9457 17.6638 17.6864 16.4576 16.8023C16.3772 16.7487 16.2968 16.6683 16.1895 16.6147C16.1627 16.5879 16.1359 16.5611 16.0823 16.5611C15.8947 16.454 15.7071 16.3468 15.5194 16.2396C15.4658 16.2128 15.4122 16.186 15.3586 16.1592C15.1978 16.0789 15.0638 15.9985 14.8761 15.9449C14.8225 15.9181 14.7689 15.8913 14.7153 15.8913C14.6349 15.8645 14.5545 15.8377 14.4741 15.8109C14.4205 15.8109 14.3937 15.7841 14.34 15.7573C14.2328 15.7305 14.0988 15.677 13.9648 15.6502C13.8844 15.6234 13.804 15.5966 13.7236 15.5966H13.6967C13.6699 15.5966 13.67 15.5966 13.6431 15.5966C13.6163 15.5966 13.5895 15.5966 13.5895 15.5966C13.4823 15.5698 13.3751 15.5698 13.2679 15.543C12.839 15.4894 12.5174 15.1143 12.5174 14.6856C12.5174 14.4445 12.6246 14.2034 12.8122 14.0426C12.973 13.9087 13.1875 13.8283 13.4019 13.8283C13.4555 13.8283 13.4823 13.8283 13.5359 13.8283C14.9565 14.0426 16.2968 14.5785 17.4761 15.4358C18.9772 16.5343 20.1297 18.1151 20.6926 19.8566C20.9875 20.7408 21.1215 21.6517 21.1215 22.5895C21.1215 23.5272 20.9875 24.4382 20.6926 25.3224C20.2906 26.662 19.5132 27.8945 18.4679 28.9126ZM20.505 11.792C19.7813 11.3097 18.8967 11.0418 17.9586 11.0418H7.23696C6.29881 11.0418 5.41428 11.3097 4.69056 11.792C3.40397 12.6226 2.54624 14.0962 2.54624 15.7306V29.1269C2.54624 30.7881 3.40397 32.2349 4.69056 33.0655C5.41428 33.5477 6.29881 33.8157 7.23696 33.8157H17.9586C18.8967 33.8157 19.7813 33.5477 20.505 33.0655C21.7916 32.2349 22.6493 30.7881 22.6493 29.1269V15.7306C22.6493 14.0694 21.7916 12.6226 20.505 11.792ZM10.4802 26.1261C10.3998 25.8582 10.4266 25.5635 10.6143 25.3224C10.7751 25.108 11.0431 24.9741 11.3112 24.9741C11.3916 24.9741 11.4988 24.9741 11.5792 25.0276C11.7937 25.0812 12.0349 25.108 12.2761 25.108C12.8122 25.108 13.3483 24.9473 13.7772 24.6258C14.206 24.3042 14.5545 23.8488 14.7153 23.3397C14.7957 23.0718 14.8493 22.8306 14.8493 22.5359C14.8493 22.268 14.7957 22.0001 14.7153 21.7589C14.5545 21.2499 14.2328 20.7944 13.7772 20.4729C13.5895 20.3389 13.3751 20.2049 13.1607 20.1514C12.7854 20.0174 12.571 19.6959 12.571 19.3208C12.571 19.0261 12.705 18.7849 12.9462 18.6242C13.1607 18.4634 13.4287 18.4098 13.6699 18.4902C13.6967 18.4902 13.7235 18.517 13.7504 18.517C13.8576 18.5438 13.938 18.5974 14.0184 18.6242C14.0988 18.6778 14.206 18.7045 14.2864 18.7581C14.3668 18.8117 14.4473 18.8385 14.5277 18.8921C14.5545 18.8921 14.5545 18.9189 14.5813 18.9189C14.6617 18.9725 14.7421 19.0261 14.8225 19.0796C15.5462 19.6155 16.1091 20.3657 16.3772 21.2231C16.5112 21.6518 16.5916 22.0804 16.5916 22.5359C16.5916 22.9914 16.5112 23.4469 16.3772 23.8756C16.1091 24.7329 15.5462 25.4831 14.8225 26.019C14.0988 26.5548 13.2143 26.8496 12.3029 26.8496C12.1957 26.8496 12.0617 26.8496 11.9545 26.8228C11.9009 26.8228 11.8473 26.8228 11.7937 26.796C11.74 26.796 11.6596 26.7692 11.606 26.7692C11.5524 26.7692 11.4988 26.7424 11.472 26.7424C11.4184 26.7424 11.3648 26.7156 11.3112 26.7156C11.2576 26.7156 11.204 26.6888 11.1503 26.662H11.1236C11.0967 26.662 11.0967 26.662 11.0699 26.6352C11.0699 26.6352 11.0699 26.6352 11.0431 26.6352C10.7483 26.5816 10.5607 26.3941 10.4802 26.1261ZM10.8555 27.1711H10.8823C10.9091 27.1711 10.9359 27.1711 10.9627 27.1979C11.0163 27.2246 11.0967 27.2246 11.1503 27.2514C11.204 27.2782 11.2844 27.2782 11.338 27.305C11.3916 27.305 11.4452 27.3318 11.4988 27.3318C11.7669 27.3854 12.0349 27.3854 12.3029 27.3854C13.3483 27.3854 14.3132 27.0639 15.1442 26.4477C15.9483 25.8582 16.5916 25.0008 16.8864 24.0363C17.0473 23.554 17.1277 23.045 17.1277 22.5359C17.1277 22.0269 17.0473 21.5178 16.8864 21.0355C16.5648 20.071 15.9483 19.2136 15.1442 18.6242C15.0638 18.5706 15.0102 18.517 14.9297 18.4902C14.6617 18.3027 14.3669 18.1687 14.0452 18.0347C14.0184 18.0079 13.9648 18.0079 13.938 17.9812H13.9112C13.6968 17.9008 13.4823 17.8472 13.2411 17.7936C12.839 17.7132 12.571 17.3649 12.571 16.9362C12.571 16.6683 12.6782 16.4272 12.8926 16.2664C13.0802 16.1324 13.2947 16.0521 13.5091 16.0789C13.5627 16.0789 13.5895 16.1057 13.6431 16.1057C13.7236 16.1057 13.804 16.1324 13.8844 16.1592C13.938 16.1592 13.9916 16.186 14.0452 16.186C14.0988 16.2128 14.1792 16.2128 14.2328 16.2396C14.2864 16.2664 14.3668 16.2932 14.4205 16.2932C14.5277 16.32 14.6617 16.3736 14.7689 16.4272C15.0369 16.5343 15.2782 16.6415 15.5194 16.7755C15.573 16.8023 15.6266 16.8291 15.6803 16.8559C15.7607 16.9094 15.8679 16.963 15.9483 17.0166C16.0287 17.0702 16.1091 17.1238 16.1895 17.1774C17.3153 17.9812 18.1462 19.16 18.5751 20.4729C18.7895 21.1159 18.8967 21.8125 18.8967 22.5091C18.8967 23.2057 18.7895 23.9024 18.5751 24.5454C18.5483 24.599 18.5215 24.6793 18.5215 24.7329C18.4947 24.7865 18.4679 24.8669 18.4411 24.9205C18.4143 24.9741 18.3875 25.0544 18.3607 25.108C18.2803 25.3224 18.173 25.5367 18.0658 25.7243C18.039 25.7778 17.9854 25.8582 17.9586 25.9118C17.905 25.9922 17.8514 26.0994 17.771 26.1797C17.7174 26.2333 17.6906 26.3137 17.6369 26.3673C17.5833 26.4477 17.5029 26.5548 17.4225 26.6352C17.3689 26.7156 17.2885 26.796 17.2349 26.8496C17.2081 26.8763 17.1813 26.9299 17.1545 26.9567C17.0741 27.0371 16.9936 27.1175 16.9132 27.1979C16.6988 27.4122 16.4308 27.6265 16.1895 27.8141C15.0638 28.6447 13.7236 29.0733 12.3297 29.0733C10.9359 29.0733 9.59571 28.6447 8.46994 27.8141C7.71942 27.2514 7.04932 26.528 6.59365 25.7243C6.45963 25.5099 6.45964 25.242 6.54006 25.0008C6.64727 24.7597 6.83489 24.5722 7.10293 24.4918C7.18335 24.465 7.29056 24.4382 7.37098 24.4382C7.66582 24.4382 7.96066 24.599 8.12149 24.8669C8.46994 25.4831 8.92562 26.019 9.48851 26.4209C9.89057 26.796 10.373 27.0371 10.8555 27.1711ZM18.4679 28.9126C18.2803 29.1001 18.039 29.1805 17.771 29.1537C17.5029 29.1269 17.2885 28.993 17.1277 28.8054C16.8596 28.4571 16.9132 27.9748 17.2349 27.6533C17.2617 27.6265 17.2617 27.6265 17.2885 27.5997C17.3421 27.5462 17.4225 27.4658 17.4761 27.3854C17.5833 27.2782 17.6638 27.1711 17.7442 27.0639C17.8246 26.9567 17.9318 26.8495 18.0122 26.7424C18.0658 26.662 18.1194 26.5816 18.173 26.5012C18.2266 26.4477 18.2534 26.3673 18.3071 26.2869C18.3339 26.2333 18.3875 26.1797 18.4143 26.0994C18.4411 26.0458 18.4679 26.019 18.4947 25.9654C18.5215 25.9118 18.5751 25.8314 18.6019 25.7778C18.6287 25.751 18.6287 25.6975 18.6555 25.6707C18.7091 25.5903 18.7359 25.4831 18.7895 25.4027C18.8967 25.1884 18.9772 24.9741 19.0308 24.7597C19.272 24.0631 19.3792 23.3129 19.3792 22.5627C19.3792 21.8125 19.272 21.0623 19.0308 20.3657C18.5751 18.9457 17.6638 17.6864 16.4576 16.8023C16.3772 16.7487 16.2968 16.6683 16.1895 16.6147C16.1627 16.5879 16.1359 16.5611 16.0823 16.5611C15.8947 16.454 15.7071 16.3468 15.5194 16.2396C15.4658 16.2128 15.4122 16.186 15.3586 16.1592C15.1978 16.0789 15.0638 15.9985 14.8761 15.9449C14.8225 15.9181 14.7689 15.8913 14.7153 15.8913C14.6349 15.8645 14.5545 15.8377 14.4741 15.8109C14.4205 15.8109 14.3937 15.7841 14.34 15.7573C14.2328 15.7305 14.0988 15.677 13.9648 15.6502C13.8844 15.6234 13.804 15.5966 13.7236 15.5966H13.6967C13.6699 15.5966 13.67 15.5966 13.6431 15.5966C13.6163 15.5966 13.5895 15.5966 13.5895 15.5966C13.4823 15.5698 13.3751 15.5698 13.2679 15.543C12.839 15.4894 12.5174 15.1143 12.5174 14.6856C12.5174 14.4445 12.6246 14.2034 12.8122 14.0426C12.973 13.9087 13.1875 13.8283 13.4019 13.8283C13.4555 13.8283 13.4823 13.8283 13.5359 13.8283C14.9565 14.0426 16.2968 14.5785 17.4761 15.4358C18.9772 16.5343 20.1297 18.1151 20.6926 19.8566C20.9875 20.7408 21.1215 21.6517 21.1215 22.5895C21.1215 23.5272 20.9875 24.4382 20.6926 25.3224C20.2906 26.662 19.5132 27.8945 18.4679 28.9126ZM20.505 11.792C19.7813 11.3097 18.8967 11.0418 17.9586 11.0418H7.23696C6.29881 11.0418 5.41428 11.3097 4.69056 11.792C3.40397 12.6226 2.54624 14.0962 2.54624 15.7306V29.1269C2.54624 30.7881 3.40397 32.2349 4.69056 33.0655C5.41428 33.5477 6.29881 33.8157 7.23696 33.8157H17.9586C18.8967 33.8157 19.7813 33.5477 20.505 33.0655C21.7916 32.2349 22.6493 30.7881 22.6493 29.1269V15.7306C22.6493 14.0694 21.7916 12.6226 20.505 11.792ZM10.4802 26.1261C10.3998 25.8582 10.4266 25.5635 10.6143 25.3224C10.7751 25.108 11.0431 24.9741 11.3112 24.9741C11.3916 24.9741 11.4988 24.9741 11.5792 25.0276C11.7937 25.0812 12.0349 25.108 12.2761 25.108C12.8122 25.108 13.3483 24.9473 13.7772 24.6258C14.206 24.3042 14.5545 23.8488 14.7153 23.3397C14.7957 23.0718 14.8493 22.8306 14.8493 22.5359C14.8493 22.268 14.7957 22.0001 14.7153 21.7589C14.5545 21.2499 14.2328 20.7944 13.7772 20.4729C13.5895 20.3389 13.3751 20.2049 13.1607 20.1514C12.7854 20.0174 12.571 19.6959 12.571 19.3208C12.571 19.0261 12.705 18.7849 12.9462 18.6242C13.1607 18.4634 13.4287 18.4098 13.6699 18.4902C13.6967 18.4902 13.7235 18.517 13.7504 18.517C13.8576 18.5438 13.938 18.5974 14.0184 18.6242C14.0988 18.6778 14.206 18.7045 14.2864 18.7581C14.3668 18.8117 14.4473 18.8385 14.5277 18.8921C14.5545 18.8921 14.5545 18.9189 14.5813 18.9189C14.6617 18.9725 14.7421 19.0261 14.8225 19.0796C15.5462 19.6155 16.1091 20.3657 16.3772 21.2231C16.5112 21.6518 16.5916 22.0804 16.5916 22.5359C16.5916 22.9914 16.5112 23.4469 16.3772 23.8756C16.1091 24.7329 15.5462 25.4831 14.8225 26.019C14.0988 26.5548 13.2143 26.8496 12.3029 26.8496C12.1957 26.8496 12.0617 26.8496 11.9545 26.8228C11.9009 26.8228 11.8473 26.8228 11.7937 26.796C11.74 26.796 11.6596 26.7692 11.606 26.7692C11.5524 26.7692 11.4988 26.7424 11.472 26.7424C11.4184 26.7424 11.3648 26.7156 11.3112 26.7156C11.2576 26.7156 11.204 26.6888 11.1503 26.662H11.1236C11.0967 26.662 11.0967 26.662 11.0699 26.6352C11.0699 26.6352 11.0699 26.6352 11.0431 26.6352C10.7483 26.5816 10.5607 26.3941 10.4802 26.1261ZM10.8555 27.1711H10.8823C10.9091 27.1711 10.9359 27.1711 10.9627 27.1979C11.0163 27.2246 11.0967 27.2246 11.1503 27.2514C11.204 27.2782 11.2844 27.2782 11.338 27.305C11.3916 27.305 11.4452 27.3318 11.4988 27.3318C11.7669 27.3854 12.0349 27.3854 12.3029 27.3854C13.3483 27.3854 14.3132 27.0639 15.1442 26.4477C15.9483 25.8582 16.5916 25.0008 16.8864 24.0363C17.0473 23.554 17.1277 23.045 17.1277 22.5359C17.1277 22.0269 17.0473 21.5178 16.8864 21.0355C16.5648 20.071 15.9483 19.2136 15.1442 18.6242C15.0638 18.5706 15.0102 18.517 14.9297 18.4902C14.6617 18.3027 14.3669 18.1687 14.0452 18.0347C14.0184 18.0079 13.9648 18.0079 13.938 17.9812H13.9112C13.6968 17.9008 13.4823 17.8472 13.2411 17.7936C12.839 17.7132 12.571 17.3649 12.571 16.9362C12.571 16.6683 12.6782 16.4272 12.8926 16.2664C13.0802 16.1324 13.2947 16.0521 13.5091 16.0789C13.5627 16.0789 13.5895 16.1057 13.6431 16.1057C13.7236 16.1057 13.804 16.1324 13.8844 16.1592C13.938 16.1592 13.9916 16.186 14.0452 16.186C14.0988 16.2128 14.1792 16.2128 14.2328 16.2396C14.2864 16.2664 14.3668 16.2932 14.4205 16.2932C14.5277 16.32 14.6617 16.3736 14.7689 16.4272C15.0369 16.5343 15.2782 16.6415 15.5194 16.7755C15.573 16.8023 15.6266 16.8291 15.6803 16.8559C15.7607 16.9094 15.8679 16.963 15.9483 17.0166C16.0287 17.0702 16.1091 17.1238 16.1895 17.1774C17.3153 17.9812 18.1462 19.16 18.5751 20.4729C18.7895 21.1159 18.8967 21.8125 18.8967 22.5091C18.8967 23.2057 18.7895 23.9024 18.5751 24.5454C18.5483 24.599 18.5215 24.6793 18.5215 24.7329C18.4947 24.7865 18.4679 24.8669 18.4411 24.9205C18.4143 24.9741 18.3875 25.0544 18.3607 25.108C18.2803 25.3224 18.173 25.5367 18.0658 25.7243C18.039 25.7778 17.9854 25.8582 17.9586 25.9118C17.905 25.9922 17.8514 26.0994 17.771 26.1797C17.7174 26.2333 17.6906 26.3137 17.6369 26.3673C17.5833 26.4477 17.5029 26.5548 17.4225 26.6352C17.3689 26.7156 17.2885 26.796 17.2349 26.8496C17.2081 26.8763 17.1813 26.9299 17.1545 26.9567C17.0741 27.0371 16.9936 27.1175 16.9132 27.1979C16.6988 27.4122 16.4308 27.6265 16.1895 27.8141C15.0638 28.6447 13.7236 29.0733 12.3297 29.0733C10.9359 29.0733 9.59571 28.6447 8.46994 27.8141C7.71942 27.2514 7.04932 26.528 6.59365 25.7243C6.45963 25.5099 6.45964 25.242 6.54006 25.0008C6.64727 24.7597 6.83489 24.5722 7.10293 24.4918C7.18335 24.465 7.29056 24.4382 7.37098 24.4382C7.66582 24.4382 7.96066 24.599 8.12149 24.8669C8.46994 25.4831 8.92562 26.019 9.48851 26.4209C9.89057 26.796 10.373 27.0371 10.8555 27.1711ZM18.4679 28.9126C18.2803 29.1001 18.039 29.1805 17.771 29.1537C17.5029 29.1269 17.2885 28.993 17.1277 28.8054C16.8596 28.4571 16.9132 27.9748 17.2349 27.6533C17.2617 27.6265 17.2617 27.6265 17.2885 27.5997C17.3421 27.5462 17.4225 27.4658 17.4761 27.3854C17.5833 27.2782 17.6638 27.1711 17.7442 27.0639C17.8246 26.9567 17.9318 26.8495 18.0122 26.7424C18.0658 26.662 18.1194 26.5816 18.173 26.5012C18.2266 26.4477 18.2534 26.3673 18.3071 26.2869C18.3339 26.2333 18.3875 26.1797 18.4143 26.0994C18.4411 26.0458 18.4679 26.019 18.4947 25.9654C18.5215 25.9118 18.5751 25.8314 18.6019 25.7778C18.6287 25.751 18.6287 25.6975 18.6555 25.6707C18.7091 25.5903 18.7359 25.4831 18.7895 25.4027C18.8967 25.1884 18.9772 24.9741 19.0308 24.7597C19.272 24.0631 19.3792 23.3129 19.3792 22.5627C19.3792 21.8125 19.272 21.0623 19.0308 20.3657C18.5751 18.9457 17.6638 17.6864 16.4576 16.8023C16.3772 16.7487 16.2968 16.6683 16.1895 16.6147C16.1627 16.5879 16.1359 16.5611 16.0823 16.5611C15.8947 16.454 15.7071 16.3468 15.5194 16.2396C15.4658 16.2128 15.4122 16.186 15.3586 16.1592C15.1978 16.0789 15.0638 15.9985 14.8761 15.9449C14.8225 15.9181 14.7689 15.8913 14.7153 15.8913C14.6349 15.8645 14.5545 15.8377 14.4741 15.8109C14.4205 15.8109 14.3937 15.7841 14.34 15.7573C14.2328 15.7305 14.0988 15.677 13.9648 15.6502C13.8844 15.6234 13.804 15.5966 13.7236 15.5966H13.6967C13.6699 15.5966 13.67 15.5966 13.6431 15.5966C13.6163 15.5966 13.5895 15.5966 13.5895 15.5966C13.4823 15.5698 13.3751 15.5698 13.2679 15.543C12.839 15.4894 12.5174 15.1143 12.5174 14.6856C12.5174 14.4445 12.6246 14.2034 12.8122 14.0426C12.973 13.9087 13.1875 13.8283 13.4019 13.8283C13.4555 13.8283 13.4823 13.8283 13.5359 13.8283C14.9565 14.0426 16.2968 14.5785 17.4761 15.4358C18.9772 16.5343 20.1297 18.1151 20.6926 19.8566C20.9875 20.7408 21.1215 21.6517 21.1215 22.5895C21.1215 23.5272 20.9875 24.4382 20.6926 25.3224C20.2906 26.662 19.5132 27.8945 18.4679 28.9126ZM20.505 11.792C19.7813 11.3097 18.8967 11.0418 17.9586 11.0418H7.23696C6.29881 11.0418 5.41428 11.3097 4.69056 11.792C3.40397 12.6226 2.54624 14.0962 2.54624 15.7306V29.1269C2.54624 30.7881 3.40397 32.2349 4.69056 33.0655C5.41428 33.5477 6.29881 33.8157 7.23696 33.8157H17.9586C18.8967 33.8157 19.7813 33.5477 20.505 33.0655C21.7916 32.2349 22.6493 30.7881 22.6493 29.1269V15.7306C22.6493 14.0694 21.7916 12.6226 20.505 11.792ZM10.4802 26.1261C10.3998 25.8582 10.4266 25.5635 10.6143 25.3224C10.7751 25.108 11.0431 24.9741 11.3112 24.9741C11.3916 24.9741 11.4988 24.9741 11.5792 25.0276C11.7937 25.0812 12.0349 25.108 12.2761 25.108C12.8122 25.108 13.3483 24.9473 13.7772 24.6258C14.206 24.3042 14.5545 23.8488 14.7153 23.3397C14.7957 23.0718 14.8493 22.8306 14.8493 22.5359C14.8493 22.268 14.7957 22.0001 14.7153 21.7589C14.5545 21.2499 14.2328 20.7944 13.7772 20.4729C13.5895 20.3389 13.3751 20.2049 13.1607 20.1514C12.7854 20.0174 12.571 19.6959 12.571 19.3208C12.571 19.0261 12.705 18.7849 12.9462 18.6242C13.1607 18.4634 13.4287 18.4098 13.6699 18.4902C13.6967 18.4902 13.7235 18.517 13.7504 18.517C13.8576 18.5438 13.938 18.5974 14.0184 18.6242C14.0988 18.6778 14.206 18.7045 14.2864 18.7581C14.3668 18.8117 14.4473 18.8385 14.5277 18.8921C14.5545 18.8921 14.5545 18.9189 14.5813 18.9189C14.6617 18.9725 14.7421 19.0261 14.8225 19.0796C15.5462 19.6155 16.1091 20.3657 16.3772 21.2231C16.5112 21.6518 16.5916 22.0804 16.5916 22.5359C16.5916 22.9914 16.5112 23.4469 16.3772 23.8756C16.1091 24.7329 15.5462 25.4831 14.8225 26.019C14.0988 26.5548 13.2143 26.8496 12.3029 26.8496C12.1957 26.8496 12.0617 26.8496 11.9545 26.8228C11.9009 26.8228 11.8473 26.8228 11.7937 26.796C11.74 26.796 11.6596 26.7692 11.606 26.7692C11.5524 26.7692 11.4988 26.7424 11.472 26.7424C11.4184 26.7424 11.3648 26.7156 11.3112 26.7156C11.2576 26.7156 11.204 26.6888 11.1503 26.662H11.1236C11.0967 26.662 11.0967 26.662 11.0699 26.6352C11.0699 26.6352 11.0699 26.6352 11.0431 26.6352C10.7483 26.5816 10.5607 26.3941 10.4802 26.1261ZM10.8555 27.1711H10.8823C10.9091 27.1711 10.9359 27.1711 10.9627 27.1979C11.0163 27.2246 11.0967 27.2246 11.1503 27.2514C11.204 27.2782 11.2844 27.2782 11.338 27.305C11.3916 27.305 11.4452 27.3318 11.4988 27.3318C11.7669 27.3854 12.0349 27.3854 12.3029 27.3854C13.3483 27.3854 14.3132 27.0639 15.1442 26.4477C15.9483 25.8582 16.5916 25.0008 16.8864 24.0363C17.0473 23.554 17.1277 23.045 17.1277 22.5359C17.1277 22.0269 17.0473 21.5178 16.8864 21.0355C16.5648 20.071 15.9483 19.2136 15.1442 18.6242C15.0638 18.5706 15.0102 18.517 14.9297 18.4902C14.6617 18.3027 14.3669 18.1687 14.0452 18.0347C14.0184 18.0079 13.9648 18.0079 13.938 17.9812H13.9112C13.6968 17.9008 13.4823 17.8472 13.2411 17.7936C12.839 17.7132 12.571 17.3649 12.571 16.9362C12.571 16.6683 12.6782 16.4272 12.8926 16.2664C13.0802 16.1324 13.2947 16.0521 13.5091 16.0789C13.5627 16.0789 13.5895 16.1057 13.6431 16.1057C13.7236 16.1057 13.804 16.1324 13.8844 16.1592C13.938 16.1592 13.9916 16.186 14.0452 16.186C14.0988 16.2128 14.1792 16.2128 14.2328 16.2396C14.2864 16.2664 14.3668 16.2932 14.4205 16.2932C14.5277 16.32 14.6617 16.3736 14.7689 16.4272C15.0369 16.5343 15.2782 16.6415 15.5194 16.7755C15.573 16.8023 15.6266 16.8291 15.6803 16.8559C15.7607 16.9094 15.8679 16.963 15.9483 17.0166C16.0287 17.0702 16.1091 17.1238 16.1895 17.1774C17.3153 17.9812 18.1462 19.16 18.5751 20.4729C18.7895 21.1159 18.8967 21.8125 18.8967 22.5091C18.8967 23.2057 18.7895 23.9024 18.5751 24.5454C18.5483 24.599 18.5215 24.6793 18.5215 24.7329C18.4947 24.7865 18.4679 24.8669 18.4411 24.9205C18.4143 24.9741 18.3875 25.0544 18.3607 25.108C18.2803 25.3224 18.173 25.5367 18.0658 25.7243C18.039 25.7778 17.9854 25.8582 17.9586 25.9118C17.905 25.9922 17.8514 26.0994 17.771 26.1797C17.7174 26.2333 17.6906 26.3137 17.6369 26.3673C17.5833 26.4477 17.5029 26.5548 17.4225 26.6352C17.3689 26.7156 17.2885 26.796 17.2349 26.8496C17.2081 26.8763 17.1813 26.9299 17.1545 26.9567C17.0741 27.0371 16.9936 27.1175 16.9132 27.1979C16.6988 27.4122 16.4308 27.6265 16.1895 27.8141C15.0638 28.6447 13.7236 29.0733 12.3297 29.0733C10.9359 29.0733 9.59571 28.6447 8.46994 27.8141C7.71942 27.2514 7.04932 26.528 6.59365 25.7243C6.45963 25.5099 6.45964 25.242 6.54006 25.0008C6.64727 24.7597 6.83489 24.5722 7.10293 24.4918C7.18335 24.465 7.29056 24.4382 7.37098 24.4382C7.66582 24.4382 7.96066 24.599 8.12149 24.8669C8.46994 25.4831 8.92562 26.019 9.48851 26.4209C9.89057 26.796 10.373 27.0371 10.8555 27.1711ZM18.4679 28.9126C18.2803 29.1001 18.039 29.1805 17.771 29.1537C17.5029 29.1269 17.2885 28.993 17.1277 28.8054C16.8596 28.4571 16.9132 27.9748 17.2349 27.6533C17.2617 27.6265 17.2617 27.6265 17.2885 27.5997C17.3421 27.5462 17.4225 27.4658 17.4761 27.3854C17.5833 27.2782 17.6638 27.1711 17.7442 27.0639C17.8246 26.9567 17.9318 26.8495 18.0122 26.7424C18.0658 26.662 18.1194 26.5816 18.173 26.5012C18.2266 26.4477 18.2534 26.3673 18.3071 26.2869C18.3339 26.2333 18.3875 26.1797 18.4143 26.0994C18.4411 26.0458 18.4679 26.019 18.4947 25.9654C18.5215 25.9118 18.5751 25.8314 18.6019 25.7778C18.6287 25.751 18.6287 25.6975 18.6555 25.6707C18.7091 25.5903 18.7359 25.4831 18.7895 25.4027C18.8967 25.1884 18.9772 24.9741 19.0308 24.7597C19.272 24.0631 19.3792 23.3129 19.3792 22.5627C19.3792 21.8125 19.272 21.0623 19.0308 20.3657C18.5751 18.9457 17.6638 17.6864 16.4576 16.8023C16.3772 16.7487 16.2968 16.6683 16.1895 16.6147C16.1627 16.5879 16.1359 16.5611 16.0823 16.5611C15.8947 16.454 15.7071 16.3468 15.5194 16.2396C15.4658 16.2128 15.4122 16.186 15.3586 16.1592C15.1978 16.0789 15.0638 15.9985 14.8761 15.9449C14.8225 15.9181 14.7689 15.8913 14.7153 15.8913C14.6349 15.8645 14.5545 15.8377 14.4741 15.8109C14.4205 15.8109 14.3937 15.7841 14.34 15.7573C14.2328 15.7305 14.0988 15.677 13.9648 15.6502C13.8844 15.6234 13.804 15.5966 13.7236 15.5966H13.6967C13.6699 15.5966 13.67 15.5966 13.6431 15.5966C13.6163 15.5966 13.5895 15.5966 13.5895 15.5966C13.4823 15.5698 13.3751 15.5698 13.2679 15.543C12.839 15.4894 12.5174 15.1143 12.5174 14.6856C12.5174 14.4445 12.6246 14.2034 12.8122 14.0426C12.973 13.9087 13.1875 13.8283 13.4019 13.8283C13.4555 13.8283 13.4823 13.8283 13.5359 13.8283C14.9565 14.0426 16.2968 14.5785 17.4761 15.4358C18.9772 16.5343 20.1297 18.1151 20.6926 19.8566C20.9875 20.7408 21.1215 21.6517 21.1215 22.5895C21.1215 23.5272 20.9875 24.4382 20.6926 25.3224C20.2906 26.662 19.5132 27.8945 18.4679 28.9126ZM24.204 14.9C23.9895 13.2924 23.1854 11.8992 22.0328 10.9079C20.9339 9.97011 19.5132 9.40747 17.9586 9.40747H7.23696C5.68232 9.40747 4.2617 9.97011 3.16273 10.9079C1.79572 12.0599 0.937988 13.8015 0.937988 15.7038V29.1001C0.937988 31.0292 1.79572 32.744 3.16273 33.896C4.2617 34.8338 5.68232 35.3964 7.23696 35.3964H17.9586C19.5132 35.3964 20.9339 34.8338 22.0328 33.896C23.3998 32.744 24.2576 31.0024 24.2576 29.1001V15.7038C24.2576 15.4626 24.2308 15.1679 24.204 14.9ZM23.9895 29.1269C23.9895 30.9756 23.1586 32.6368 21.8184 33.7353C20.773 34.6195 19.4328 35.1285 17.9586 35.1285H7.23696C5.76273 35.1285 4.42252 34.5927 3.37716 33.7353C2.06375 32.6368 1.20603 30.9756 1.20603 29.1269V15.7306C1.20603 13.8819 2.06375 12.2207 3.37716 11.1222C4.42252 10.238 5.76273 9.72897 7.23696 9.72897H17.9586C19.4328 9.72897 20.773 10.2648 21.8184 11.1222C23.1318 12.2207 23.9895 13.8819 23.9895 15.7306V29.1269ZM20.505 11.792C19.7813 11.3097 18.8967 11.0418 17.9586 11.0418H7.23696C6.29881 11.0418 5.41428 11.3097 4.69056 11.792C3.40397 12.6226 2.54624 14.0962 2.54624 15.7306V29.1269C2.54624 30.7881 3.40397 32.2349 4.69056 33.0655C5.41428 33.5477 6.29881 33.8157 7.23696 33.8157H17.9586C18.8967 33.8157 19.7813 33.5477 20.505 33.0655C21.7916 32.2349 22.6493 30.7881 22.6493 29.1269V15.7306C22.6493 14.0694 21.7916 12.6226 20.505 11.792ZM10.4802 26.1261C10.3998 25.8582 10.4266 25.5635 10.6143 25.3224C10.7751 25.108 11.0431 24.9741 11.3112 24.9741C11.3916 24.9741 11.4988 24.9741 11.5792 25.0276C11.7937 25.0812 12.0349 25.108 12.2761 25.108C12.8122 25.108 13.3483 24.9473 13.7772 24.6258C14.206 24.3042 14.5545 23.8488 14.7153 23.3397C14.7957 23.0718 14.8493 22.8306 14.8493 22.5359C14.8493 22.268 14.7957 22.0001 14.7153 21.7589C14.5545 21.2499 14.2328 20.7944 13.7772 20.4729C13.5895 20.3389 13.3751 20.2049 13.1607 20.1514C12.7854 20.0174 12.571 19.6959 12.571 19.3208C12.571 19.0261 12.705 18.7849 12.9462 18.6242C13.1607 18.4634 13.4287 18.4098 13.6699 18.4902C13.6967 18.4902 13.7235 18.517 13.7504 18.517C13.8576 18.5438 13.938 18.5974 14.0184 18.6242C14.0988 18.6778 14.206 18.7045 14.2864 18.7581C14.3668 18.8117 14.4473 18.8385 14.5277 18.8921C14.5545 18.8921 14.5545 18.9189 14.5813 18.9189C14.6617 18.9725 14.7421 19.0261 14.8225 19.0796C15.5462 19.6155 16.1091 20.3657 16.3772 21.2231C16.5112 21.6518 16.5916 22.0804 16.5916 22.5359C16.5916 22.9914 16.5112 23.4469 16.3772 23.8756C16.1091 24.7329 15.5462 25.4831 14.8225 26.019C14.0988 26.5548 13.2143 26.8496 12.3029 26.8496C12.1957 26.8496 12.0617 26.8496 11.9545 26.8228C11.9009 26.8228 11.8473 26.8228 11.7937 26.796C11.74 26.796 11.6596 26.7692 11.606 26.7692C11.5524 26.7692 11.4988 26.7424 11.472 26.7424C11.4184 26.7424 11.3648 26.7156 11.3112 26.7156C11.2576 26.7156 11.204 26.6888 11.1503 26.662H11.1236C11.0967 26.662 11.0967 26.662 11.0699 26.6352C11.0699 26.6352 11.0699 26.6352 11.0431 26.6352C10.7483 26.5816 10.5607 26.3941 10.4802 26.1261ZM10.8555 27.1711H10.8823C10.9091 27.1711 10.9359 27.1711 10.9627 27.1979C11.0163 27.2246 11.0967 27.2246 11.1503 27.2514C11.204 27.2782 11.2844 27.2782 11.338 27.305C11.3916 27.305 11.4452 27.3318 11.4988 27.3318C11.7669 27.3854 12.0349 27.3854 12.3029 27.3854C13.3483 27.3854 14.3132 27.0639 15.1442 26.4477C15.9483 25.8582 16.5916 25.0008 16.8864 24.0363C17.0473 23.554 17.1277 23.045 17.1277 22.5359C17.1277 22.0269 17.0473 21.5178 16.8864 21.0355C16.5648 20.071 15.9483 19.2136 15.1442 18.6242C15.0638 18.5706 15.0102 18.517 14.9297 18.4902C14.6617 18.3027 14.3669 18.1687 14.0452 18.0347C14.0184 18.0079 13.9648 18.0079 13.938 17.9812H13.9112C13.6968 17.9008 13.4823 17.8472 13.2411 17.7936C12.839 17.7132 12.571 17.3649 12.571 16.9362C12.571 16.6683 12.6782 16.4272 12.8926 16.2664C13.0802 16.1324 13.2947 16.0521 13.5091 16.0789C13.5627 16.0789 13.5895 16.1057 13.6431 16.1057C13.7236 16.1057 13.804 16.1324 13.8844 16.1592C13.938 16.1592 13.9916 16.186 14.0452 16.186C14.0988 16.2128 14.1792 16.2128 14.2328 16.2396C14.2864 16.2664 14.3668 16.2932 14.4205 16.2932C14.5277 16.32 14.6617 16.3736 14.7689 16.4272C15.0369 16.5343 15.2782 16.6415 15.5194 16.7755C15.573 16.8023 15.6266 16.8291 15.6803 16.8559C15.7607 16.9094 15.8679 16.963 15.9483 17.0166C16.0287 17.0702 16.1091 17.1238 16.1895 17.1774C17.3153 17.9812 18.1462 19.16 18.5751 20.4729C18.7895 21.1159 18.8967 21.8125 18.8967 22.5091C18.8967 23.2057 18.7895 23.9024 18.5751 24.5454C18.5483 24.599 18.5215 24.6793 18.5215 24.7329C18.4947 24.7865 18.4679 24.8669 18.4411 24.9205C18.4143 24.9741 18.3875 25.0544 18.3607 25.108C18.2803 25.3224 18.173 25.5367 18.0658 25.7243C18.039 25.7778 17.9854 25.8582 17.9586 25.9118C17.905 25.9922 17.8514 26.0994 17.771 26.1797C17.7174 26.2333 17.6906 26.3137 17.6369 26.3673C17.5833 26.4477 17.5029 26.5548 17.4225 26.6352C17.3689 26.7156 17.2885 26.796 17.2349 26.8496C17.2081 26.8763 17.1813 26.9299 17.1545 26.9567C17.0741 27.0371 16.9936 27.1175 16.9132 27.1979C16.6988 27.4122 16.4308 27.6265 16.1895 27.8141C15.0638 28.6447 13.7236 29.0733 12.3297 29.0733C10.9359 29.0733 9.59571 28.6447 8.46994 27.8141C7.71942 27.2514 7.04932 26.528 6.59365 25.7243C6.45963 25.5099 6.45964 25.242 6.54006 25.0008C6.64727 24.7597 6.83489 24.5722 7.10293 24.4918C7.18335 24.465 7.29056 24.4382 7.37098 24.4382C7.66582 24.4382 7.96066 24.599 8.12149 24.8669C8.46994 25.4831 8.92562 26.019 9.48851 26.4209C9.89057 26.796 10.373 27.0371 10.8555 27.1711ZM18.4679 28.9126C18.2803 29.1001 18.039 29.1805 17.771 29.1537C17.5029 29.1269 17.2885 28.993 17.1277 28.8054C16.8596 28.4571 16.9132 27.9748 17.2349 27.6533C17.2617 27.6265 17.2617 27.6265 17.2885 27.5997C17.3421 27.5462 17.4225 27.4658 17.4761 27.3854C17.5833 27.2782 17.6638 27.1711 17.7442 27.0639C17.8246 26.9567 17.9318 26.8495 18.0122 26.7424C18.0658 26.662 18.1194 26.5816 18.173 26.5012C18.2266 26.4477 18.2534 26.3673 18.3071 26.2869C18.3339 26.2333 18.3875 26.1797 18.4143 26.0994C18.4411 26.0458 18.4679 26.019 18.4947 25.9654C18.5215 25.9118 18.5751 25.8314 18.6019 25.7778C18.6287 25.751 18.6287 25.6975 18.6555 25.6707C18.7091 25.5903 18.7359 25.4831 18.7895 25.4027C18.8967 25.1884 18.9772 24.9741 19.0308 24.7597C19.272 24.0631 19.3792 23.3129 19.3792 22.5627C19.3792 21.8125 19.272 21.0623 19.0308 20.3657C18.5751 18.9457 17.6638 17.6864 16.4576 16.8023C16.3772 16.7487 16.2968 16.6683 16.1895 16.6147C16.1627 16.5879 16.1359 16.5611 16.0823 16.5611C15.8947 16.454 15.7071 16.3468 15.5194 16.2396C15.4658 16.2128 15.4122 16.186 15.3586 16.1592C15.1978 16.0789 15.0638 15.9985 14.8761 15.9449C14.8225 15.9181 14.7689 15.8913 14.7153 15.8913C14.6349 15.8645 14.5545 15.8377 14.4741 15.8109C14.4205 15.8109 14.3937 15.7841 14.34 15.7573C14.2328 15.7305 14.0988 15.677 13.9648 15.6502C13.8844 15.6234 13.804 15.5966 13.7236 15.5966H13.6967C13.6699 15.5966 13.67 15.5966 13.6431 15.5966C13.6163 15.5966 13.5895 15.5966 13.5895 15.5966C13.4823 15.5698 13.3751 15.5698 13.2679 15.543C12.839 15.4894 12.5174 15.1143 12.5174 14.6856C12.5174 14.4445 12.6246 14.2034 12.8122 14.0426C12.973 13.9087 13.1875 13.8283 13.4019 13.8283C13.4555 13.8283 13.4823 13.8283 13.5359 13.8283C14.9565 14.0426 16.2968 14.5785 17.4761 15.4358C18.9772 16.5343 20.1297 18.1151 20.6926 19.8566C20.9875 20.7408 21.1215 21.6517 21.1215 22.5895C21.1215 23.5272 20.9875 24.4382 20.6926 25.3224C20.2906 26.662 19.5132 27.8945 18.4679 28.9126ZM20.505 11.792C19.7813 11.3097 18.8967 11.0418 17.9586 11.0418H7.23696C6.29881 11.0418 5.41428 11.3097 4.69056 11.792C3.40397 12.6226 2.54624 14.0962 2.54624 15.7306V29.1269C2.54624 30.7881 3.40397 32.2349 4.69056 33.0655C5.41428 33.5477 6.29881 33.8157 7.23696 33.8157H17.9586C18.8967 33.8157 19.7813 33.5477 20.505 33.0655C21.7916 32.2349 22.6493 30.7881 22.6493 29.1269V15.7306C22.6493 14.0694 21.7916 12.6226 20.505 11.792ZM10.4802 26.1261C10.3998 25.8582 10.4266 25.5635 10.6143 25.3224C10.7751 25.108 11.0431 24.9741 11.3112 24.9741C11.3916 24.9741 11.4988 24.9741 11.5792 25.0276C11.7937 25.0812 12.0349 25.108 12.2761 25.108C12.8122 25.108 13.3483 24.9473 13.7772 24.6258C14.206 24.3042 14.5545 23.8488 14.7153 23.3397C14.7957 23.0718 14.8493 22.8306 14.8493 22.5359C14.8493 22.268 14.7957 22.0001 14.7153 21.7589C14.5545 21.2499 14.2328 20.7944 13.7772 20.4729C13.5895 20.3389 13.3751 20.2049 13.1607 20.1514C12.7854 20.0174 12.571 19.6959 12.571 19.3208C12.571 19.0261 12.705 18.7849 12.9462 18.6242C13.1607 18.4634 13.4287 18.4098 13.6699 18.4902C13.6967 18.4902 13.7235 18.517 13.7504 18.517C13.8576 18.5438 13.938 18.5974 14.0184 18.6242C14.0988 18.6778 14.206 18.7045 14.2864 18.7581C14.3668 18.8117 14.4473 18.8385 14.5277 18.8921C14.5545 18.8921 14.5545 18.9189 14.5813 18.9189C14.6617 18.9725 14.7421 19.0261 14.8225 19.0796C15.5462 19.6155 16.1091 20.3657 16.3772 21.2231C16.5112 21.6518 16.5916 22.0804 16.5916 22.5359C16.5916 22.9914 16.5112 23.4469 16.3772 23.8756C16.1091 24.7329 15.5462 25.4831 14.8225 26.019C14.0988 26.5548 13.2143 26.8496 12.3029 26.8496C12.1957 26.8496 12.0617 26.8496 11.9545 26.8228C11.9009 26.8228 11.8473 26.8228 11.7937 26.796C11.74 26.796 11.6596 26.7692 11.606 26.7692C11.5524 26.7692 11.4988 26.7424 11.472 26.7424C11.4184 26.7424 11.3648 26.7156 11.3112 26.7156C11.2576 26.7156 11.204 26.6888 11.1503 26.662H11.1236C11.0967 26.662 11.0967 26.662 11.0699 26.6352C11.0699 26.6352 11.0699 26.6352 11.0431 26.6352C10.7483 26.5816 10.5607 26.3941 10.4802 26.1261ZM10.8555 27.1711H10.8823C10.9091 27.1711 10.9359 27.1711 10.9627 27.1979C11.0163 27.2246 11.0967 27.2246 11.1503 27.2514C11.204 27.2782 11.2844 27.2782 11.338 27.305C11.3916 27.305 11.4452 27.3318 11.4988 27.3318C11.7669 27.3854 12.0349 27.3854 12.3029 27.3854C13.3483 27.3854 14.3132 27.0639 15.1442 26.4477C15.9483 25.8582 16.5916 25.0008 16.8864 24.0363C17.0473 23.554 17.1277 23.045 17.1277 22.5359C17.1277 22.0269 17.0473 21.5178 16.8864 21.0355C16.5648 20.071 15.9483 19.2136 15.1442 18.6242C15.0638 18.5706 15.0102 18.517 14.9297 18.4902C14.6617 18.3027 14.3669 18.1687 14.0452 18.0347C14.0184 18.0079 13.9648 18.0079 13.938 17.9812H13.9112C13.6968 17.9008 13.4823 17.8472 13.2411 17.7936C12.839 17.7132 12.571 17.3649 12.571 16.9362C12.571 16.6683 12.6782 16.4272 12.8926 16.2664C13.0802 16.1324 13.2947 16.0521 13.5091 16.0789C13.5627 16.0789 13.5895 16.1057 13.6431 16.1057C13.7236 16.1057 13.804 16.1324 13.8844 16.1592C13.938 16.1592 13.9916 16.186 14.0452 16.186C14.0988 16.2128 14.1792 16.2128 14.2328 16.2396C14.2864 16.2664 14.3668 16.2932 14.4205 16.2932C14.5277 16.32 14.6617 16.3736 14.7689 16.4272C15.0369 16.5343 15.2782 16.6415 15.5194 16.7755C15.573 16.8023 15.6266 16.8291 15.6803 16.8559C15.7607 16.9094 15.8679 16.963 15.9483 17.0166C16.0287 17.0702 16.1091 17.1238 16.1895 17.1774C17.3153 17.9812 18.1462 19.16 18.5751 20.4729C18.7895 21.1159 18.8967 21.8125 18.8967 22.5091C18.8967 23.2057 18.7895 23.9024 18.5751 24.5454C18.5483 24.599 18.5215 24.6793 18.5215 24.7329C18.4947 24.7865 18.4679 24.8669 18.4411 24.9205C18.4143 24.9741 18.3875 25.0544 18.3607 25.108C18.2803 25.3224 18.173 25.5367 18.0658 25.7243C18.039 25.7778 17.9854 25.8582 17.9586 25.9118C17.905 25.9922 17.8514 26.0994 17.771 26.1797C17.7174 26.2333 17.6906 26.3137 17.6369 26.3673C17.5833 26.4477 17.5029 26.5548 17.4225 26.6352C17.3689 26.7156 17.2885 26.796 17.2349 26.8496C17.2081 26.8763 17.1813 26.9299 17.1545 26.9567C17.0741 27.0371 16.9936 27.1175 16.9132 27.1979C16.6988 27.4122 16.4308 27.6265 16.1895 27.8141C15.0638 28.6447 13.7236 29.0733 12.3297 29.0733C10.9359 29.0733 9.59571 28.6447 8.46994 27.8141C7.71942 27.2514 7.04932 26.528 6.59365 25.7243C6.45963 25.5099 6.45964 25.242 6.54006 25.0008C6.64727 24.7597 6.83489 24.5722 7.10293 24.4918C7.18335 24.465 7.29056 24.4382 7.37098 24.4382C7.66582 24.4382 7.96066 24.599 8.12149 24.8669C8.46994 25.4831 8.92562 26.019 9.48851 26.4209C9.89057 26.796 10.373 27.0371 10.8555 27.1711ZM18.4679 28.9126C18.2803 29.1001 18.039 29.1805 17.771 29.1537C17.5029 29.1269 17.2885 28.993 17.1277 28.8054C16.8596 28.4571 16.9132 27.9748 17.2349 27.6533C17.2617 27.6265 17.2617 27.6265 17.2885 27.5997C17.3421 27.5462 17.4225 27.4658 17.4761 27.3854C17.5833 27.2782 17.6638 27.1711 17.7442 27.0639C17.8246 26.9567 17.9318 26.8495 18.0122 26.7424C18.0658 26.662 18.1194 26.5816 18.173 26.5012C18.2266 26.4477 18.2534 26.3673 18.3071 26.2869C18.3339 26.2333 18.3875 26.1797 18.4143 26.0994C18.4411 26.0458 18.4679 26.019 18.4947 25.9654C18.5215 25.9118 18.5751 25.8314 18.6019 25.7778C18.6287 25.751 18.6287 25.6975 18.6555 25.6707C18.7091 25.5903 18.7359 25.4831 18.7895 25.4027C18.8967 25.1884 18.9772 24.9741 19.0308 24.7597C19.272 24.0631 19.3792 23.3129 19.3792 22.5627C19.3792 21.8125 19.272 21.0623 19.0308 20.3657C18.5751 18.9457 17.6638 17.6864 16.4576 16.8023C16.3772 16.7487 16.2968 16.6683 16.1895 16.6147C16.1627 16.5879 16.1359 16.5611 16.0823 16.5611C15.8947 16.454 15.7071 16.3468 15.5194 16.2396C15.4658 16.2128 15.4122 16.186 15.3586 16.1592C15.1978 16.0789 15.0638 15.9985 14.8761 15.9449C14.8225 15.9181 14.7689 15.8913 14.7153 15.8913C14.6349 15.8645 14.5545 15.8377 14.4741 15.8109C14.4205 15.8109 14.3937 15.7841 14.34 15.7573C14.2328 15.7305 14.0988 15.677 13.9648 15.6502C13.8844 15.6234 13.804 15.5966 13.7236 15.5966H13.6967C13.6699 15.5966 13.67 15.5966 13.6431 15.5966C13.6163 15.5966 13.5895 15.5966 13.5895 15.5966C13.4823 15.5698 13.3751 15.5698 13.2679 15.543C12.839 15.4894 12.5174 15.1143 12.5174 14.6856C12.5174 14.4445 12.6246 14.2034 12.8122 14.0426C12.973 13.9087 13.1875 13.8283 13.4019 13.8283C13.4555 13.8283 13.4823 13.8283 13.5359 13.8283C14.9565 14.0426 16.2968 14.5785 17.4761 15.4358C18.9772 16.5343 20.1297 18.1151 20.6926 19.8566C20.9875 20.7408 21.1215 21.6517 21.1215 22.5895C21.1215 23.5272 20.9875 24.4382 20.6926 25.3224C20.2906 26.662 19.5132 27.8945 18.4679 28.9126ZM20.505 11.792C19.7813 11.3097 18.8967 11.0418 17.9586 11.0418H7.23696C6.29881 11.0418 5.41428 11.3097 4.69056 11.792C3.40397 12.6226 2.54624 14.0962 2.54624 15.7306V29.1269C2.54624 30.7881 3.40397 32.2349 4.69056 33.0655C5.41428 33.5477 6.29881 33.8157 7.23696 33.8157H17.9586C18.8967 33.8157 19.7813 33.5477 20.505 33.0655C21.7916 32.2349 22.6493 30.7881 22.6493 29.1269V15.7306C22.6493 14.0694 21.7916 12.6226 20.505 11.792ZM10.4802 26.1261C10.3998 25.8582 10.4266 25.5635 10.6143 25.3224C10.7751 25.108 11.0431 24.9741 11.3112 24.9741C11.3916 24.9741 11.4988 24.9741 11.5792 25.0276C11.7937 25.0812 12.0349 25.108 12.2761 25.108C12.8122 25.108 13.3483 24.9473 13.7772 24.6258C14.206 24.3042 14.5545 23.8488 14.7153 23.3397C14.7957 23.0718 14.8493 22.8306 14.8493 22.5359C14.8493 22.268 14.7957 22.0001 14.7153 21.7589C14.5545 21.2499 14.2328 20.7944 13.7772 20.4729C13.5895 20.3389 13.3751 20.2049 13.1607 20.1514C12.7854 20.0174 12.571 19.6959 12.571 19.3208C12.571 19.0261 12.705 18.7849 12.9462 18.6242C13.1607 18.4634 13.4287 18.4098 13.6699 18.4902C13.6967 18.4902 13.7235 18.517 13.7504 18.517C13.8576 18.5438 13.938 18.5974 14.0184 18.6242C14.0988 18.6778 14.206 18.7045 14.2864 18.7581C14.3668 18.8117 14.4473 18.8385 14.5277 18.8921C14.5545 18.8921 14.5545 18.9189 14.5813 18.9189C14.6617 18.9725 14.7421 19.0261 14.8225 19.0796C15.5462 19.6155 16.1091 20.3657 16.3772 21.2231C16.5112 21.6518 16.5916 22.0804 16.5916 22.5359C16.5916 22.9914 16.5112 23.4469 16.3772 23.8756C16.1091 24.7329 15.5462 25.4831 14.8225 26.019C14.0988 26.5548 13.2143 26.8496 12.3029 26.8496C12.1957 26.8496 12.0617 26.8496 11.9545 26.8228C11.9009 26.8228 11.8473 26.8228 11.7937 26.796C11.74 26.796 11.6596 26.7692 11.606 26.7692C11.5524 26.7692 11.4988 26.7424 11.472 26.7424C11.4184 26.7424 11.3648 26.7156 11.3112 26.7156C11.2576 26.7156 11.204 26.6888 11.1503 26.662H11.1236C11.0967 26.662 11.0967 26.662 11.0699 26.6352C11.0699 26.6352 11.0699 26.6352 11.0431 26.6352C10.7483 26.5816 10.5607 26.3941 10.4802 26.1261ZM10.8555 27.1711H10.8823C10.9091 27.1711 10.9359 27.1711 10.9627 27.1979C11.0163 27.2246 11.0967 27.2246 11.1503 27.2514C11.204 27.2782 11.2844 27.2782 11.338 27.305C11.3916 27.305 11.4452 27.3318 11.4988 27.3318C11.7669 27.3854 12.0349 27.3854 12.3029 27.3854C13.3483 27.3854 14.3132 27.0639 15.1442 26.4477C15.9483 25.8582 16.5916 25.0008 16.8864 24.0363C17.0473 23.554 17.1277 23.045 17.1277 22.5359C17.1277 22.0269 17.0473 21.5178 16.8864 21.0355C16.5648 20.071 15.9483 19.2136 15.1442 18.6242C15.0638 18.5706 15.0102 18.517 14.9297 18.4902C14.6617 18.3027 14.3669 18.1687 14.0452 18.0347C14.0184 18.0079 13.9648 18.0079 13.938 17.9812H13.9112C13.6968 17.9008 13.4823 17.8472 13.2411 17.7936C12.839 17.7132 12.571 17.3649 12.571 16.9362C12.571 16.6683 12.6782 16.4272 12.8926 16.2664C13.0802 16.1324 13.2947 16.0521 13.5091 16.0789C13.5627 16.0789 13.5895 16.1057 13.6431 16.1057C13.7236 16.1057 13.804 16.1324 13.8844 16.1592C13.938 16.1592 13.9916 16.186 14.0452 16.186C14.0988 16.2128 14.1792 16.2128 14.2328 16.2396C14.2864 16.2664 14.3668 16.2932 14.4205 16.2932C14.5277 16.32 14.6617 16.3736 14.7689 16.4272C15.0369 16.5343 15.2782 16.6415 15.5194 16.7755C15.573 16.8023 15.6266 16.8291 15.6803 16.8559C15.7607 16.9094 15.8679 16.963 15.9483 17.0166C16.0287 17.0702 16.1091 17.1238 16.1895 17.1774C17.3153 17.9812 18.1462 19.16 18.5751 20.4729C18.7895 21.1159 18.8967 21.8125 18.8967 22.5091C18.8967 23.2057 18.7895 23.9024 18.5751 24.5454C18.5483 24.599 18.5215 24.6793 18.5215 24.7329C18.4947 24.7865 18.4679 24.8669 18.4411 24.9205C18.4143 24.9741 18.3875 25.0544 18.3607 25.108C18.2803 25.3224 18.173 25.5367 18.0658 25.7243C18.039 25.7778 17.9854 25.8582 17.9586 25.9118C17.905 25.9922 17.8514 26.0994 17.771 26.1797C17.7174 26.2333 17.6906 26.3137 17.6369 26.3673C17.5833 26.4477 17.5029 26.5548 17.4225 26.6352C17.3689 26.7156 17.2885 26.796 17.2349 26.8496C17.2081 26.8763 17.1813 26.9299 17.1545 26.9567C17.0741 27.0371 16.9936 27.1175 16.9132 27.1979C16.6988 27.4122 16.4308 27.6265 16.1895 27.8141C15.0638 28.6447 13.7236 29.0733 12.3297 29.0733C10.9359 29.0733 9.59571 28.6447 8.46994 27.8141C7.71942 27.2514 7.04932 26.528 6.59365 25.7243C6.45963 25.5099 6.45964 25.242 6.54006 25.0008C6.64727 24.7597 6.83489 24.5722 7.10293 24.4918C7.18335 24.465 7.29056 24.4382 7.37098 24.4382C7.66582 24.4382 7.96066 24.599 8.12149 24.8669C8.46994 25.4831 8.92562 26.019 9.48851 26.4209C9.89057 26.796 10.373 27.0371 10.8555 27.1711ZM18.4679 28.9126C18.2803 29.1001 18.039 29.1805 17.771 29.1537C17.5029 29.1269 17.2885 28.993 17.1277 28.8054C16.8596 28.4571 16.9132 27.9748 17.2349 27.6533C17.2617 27.6265 17.2617 27.6265 17.2885 27.5997C17.3421 27.5462 17.4225 27.4658 17.4761 27.3854C17.5833 27.2782 17.6638 27.1711 17.7442 27.0639C17.8246 26.9567 17.9318 26.8495 18.0122 26.7424C18.0658 26.662 18.1194 26.5816 18.173 26.5012C18.2266 26.4477 18.2534 26.3673 18.3071 26.2869C18.3339 26.2333 18.3875 26.1797 18.4143 26.0994C18.4411 26.0458 18.4679 26.019 18.4947 25.9654C18.5215 25.9118 18.5751 25.8314 18.6019 25.7778C18.6287 25.751 18.6287 25.6975 18.6555 25.6707C18.7091 25.5903 18.7359 25.4831 18.7895 25.4027C18.8967 25.1884 18.9772 24.9741 19.0308 24.7597C19.272 24.0631 19.3792 23.3129 19.3792 22.5627C19.3792 21.8125 19.272 21.0623 19.0308 20.3657C18.5751 18.9457 17.6638 17.6864 16.4576 16.8023C16.3772 16.7487 16.2968 16.6683 16.1895 16.6147C16.1627 16.5879 16.1359 16.5611 16.0823 16.5611C15.8947 16.454 15.7071 16.3468 15.5194 16.2396C15.4658 16.2128 15.4122 16.186 15.3586 16.1592C15.1978 16.0789 15.0638 15.9985 14.8761 15.9449C14.8225 15.9181 14.7689 15.8913 14.7153 15.8913C14.6349 15.8645 14.5545 15.8377 14.4741 15.8109C14.4205 15.8109 14.3937 15.7841 14.34 15.7573C14.2328 15.7305 14.0988 15.677 13.9648 15.6502C13.8844 15.6234 13.804 15.5966 13.7236 15.5966H13.6967C13.6699 15.5966 13.67 15.5966 13.6431 15.5966C13.6163 15.5966 13.5895 15.5966 13.5895 15.5966C13.4823 15.5698 13.3751 15.5698 13.2679 15.543C12.839 15.4894 12.5174 15.1143 12.5174 14.6856C12.5174 14.4445 12.6246 14.2034 12.8122 14.0426C12.973 13.9087 13.1875 13.8283 13.4019 13.8283C13.4555 13.8283 13.4823 13.8283 13.5359 13.8283C14.9565 14.0426 16.2968 14.5785 17.4761 15.4358C18.9772 16.5343 20.1297 18.1151 20.6926 19.8566C20.9875 20.7408 21.1215 21.6517 21.1215 22.5895C21.1215 23.5272 20.9875 24.4382 20.6926 25.3224C20.2906 26.662 19.5132 27.8945 18.4679 28.9126ZM20.505 11.792C19.7813 11.3097 18.8967 11.0418 17.9586 11.0418H7.23696C6.29881 11.0418 5.41428 11.3097 4.69056 11.792C3.40397 12.6226 2.54624 14.0962 2.54624 15.7306V29.1269C2.54624 30.7881 3.40397 32.2349 4.69056 33.0655C5.41428 33.5477 6.29881 33.8157 7.23696 33.8157H17.9586C18.8967 33.8157 19.7813 33.5477 20.505 33.0655C21.7916 32.2349 22.6493 30.7881 22.6493 29.1269V15.7306C22.6493 14.0694 21.7916 12.6226 20.505 11.792ZM10.4802 26.1261C10.3998 25.8582 10.4266 25.5635 10.6143 25.3224C10.7751 25.108 11.0431 24.9741 11.3112 24.9741C11.3916 24.9741 11.4988 24.9741 11.5792 25.0276C11.7937 25.0812 12.0349 25.108 12.2761 25.108C12.8122 25.108 13.3483 24.9473 13.7772 24.6258C14.206 24.3042 14.5545 23.8488 14.7153 23.3397C14.7957 23.0718 14.8493 22.8306 14.8493 22.5359C14.8493 22.268 14.7957 22.0001 14.7153 21.7589C14.5545 21.2499 14.2328 20.7944 13.7772 20.4729C13.5895 20.3389 13.3751 20.2049 13.1607 20.1514C12.7854 20.0174 12.571 19.6959 12.571 19.3208C12.571 19.0261 12.705 18.7849 12.9462 18.6242C13.1607 18.4634 13.4287 18.4098 13.6699 18.4902C13.6967 18.4902 13.7235 18.517 13.7504 18.517C13.8576 18.5438 13.938 18.5974 14.0184 18.6242C14.0988 18.6778 14.206 18.7045 14.2864 18.7581C14.3668 18.8117 14.4473 18.8385 14.5277 18.8921C14.5545 18.8921 14.5545 18.9189 14.5813 18.9189C14.6617 18.9725 14.7421 19.0261 14.8225 19.0796C15.5462 19.6155 16.1091 20.3657 16.3772 21.2231C16.5112 21.6518 16.5916 22.0804 16.5916 22.5359C16.5916 22.9914 16.5112 23.4469 16.3772 23.8756C16.1091 24.7329 15.5462 25.4831 14.8225 26.019C14.0988 26.5548 13.2143 26.8496 12.3029 26.8496C12.1957 26.8496 12.0617 26.8496 11.9545 26.8228C11.9009 26.8228 11.8473 26.8228 11.7937 26.796C11.74 26.796 11.6596 26.7692 11.606 26.7692C11.5524 26.7692 11.4988 26.7424 11.472 26.7424C11.4184 26.7424 11.3648 26.7156 11.3112 26.7156C11.2576 26.7156 11.204 26.6888 11.1503 26.662H11.1236C11.0967 26.662 11.0967 26.662 11.0699 26.6352C11.0699 26.6352 11.0699 26.6352 11.0431 26.6352C10.7483 26.5816 10.5607 26.3941 10.4802 26.1261ZM10.8555 27.1711H10.8823C10.9091 27.1711 10.9359 27.1711 10.9627 27.1979C11.0163 27.2246 11.0967 27.2246 11.1503 27.2514C11.204 27.2782 11.2844 27.2782 11.338 27.305C11.3916 27.305 11.4452 27.3318 11.4988 27.3318C11.7669 27.3854 12.0349 27.3854 12.3029 27.3854C13.3483 27.3854 14.3132 27.0639 15.1442 26.4477C15.9483 25.8582 16.5916 25.0008 16.8864 24.0363C17.0473 23.554 17.1277 23.045 17.1277 22.5359C17.1277 22.0269 17.0473 21.5178 16.8864 21.0355C16.5648 20.071 15.9483 19.2136 15.1442 18.6242C15.0638 18.5706 15.0102 18.517 14.9297 18.4902C14.6617 18.3027 14.3669 18.1687 14.0452 18.0347C14.0184 18.0079 13.9648 18.0079 13.938 17.9812H13.9112C13.6968 17.9008 13.4823 17.8472 13.2411 17.7936C12.839 17.7132 12.571 17.3649 12.571 16.9362C12.571 16.6683 12.6782 16.4272 12.8926 16.2664C13.0802 16.1324 13.2947 16.0521 13.5091 16.0789C13.5627 16.0789 13.5895 16.1057 13.6431 16.1057C13.7236 16.1057 13.804 16.1324 13.8844 16.1592C13.938 16.1592 13.9916 16.186 14.0452 16.186C14.0988 16.2128 14.1792 16.2128 14.2328 16.2396C14.2864 16.2664 14.3668 16.2932 14.4205 16.2932C14.5277 16.32 14.6617 16.3736 14.7689 16.4272C15.0369 16.5343 15.2782 16.6415 15.5194 16.7755C15.573 16.8023 15.6266 16.8291 15.6803 16.8559C15.7607 16.9094 15.8679 16.963 15.9483 17.0166C16.0287 17.0702 16.1091 17.1238 16.1895 17.1774C17.3153 17.9812 18.1462 19.16 18.5751 20.4729C18.7895 21.1159 18.8967 21.8125 18.8967 22.5091C18.8967 23.2057 18.7895 23.9024 18.5751 24.5454C18.5483 24.599 18.5215 24.6793 18.5215 24.7329C18.4947 24.7865 18.4679 24.8669 18.4411 24.9205C18.4143 24.9741 18.3875 25.0544 18.3607 25.108C18.2803 25.3224 18.173 25.5367 18.0658 25.7243C18.039 25.7778 17.9854 25.8582 17.9586 25.9118C17.905 25.9922 17.8514 26.0994 17.771 26.1797C17.7174 26.2333 17.6906 26.3137 17.6369 26.3673C17.5833 26.4477 17.5029 26.5548 17.4225 26.6352C17.3689 26.7156 17.2885 26.796 17.2349 26.8496C17.2081 26.8763 17.1813 26.9299 17.1545 26.9567C17.0741 27.0371 16.9936 27.1175 16.9132 27.1979C16.6988 27.4122 16.4308 27.6265 16.1895 27.8141C15.0638 28.6447 13.7236 29.0733 12.3297 29.0733C10.9359 29.0733 9.59571 28.6447 8.46994 27.8141C7.71942 27.2514 7.04932 26.528 6.59365 25.7243C6.45963 25.5099 6.45964 25.242 6.54006 25.0008C6.64727 24.7597 6.83489 24.5722 7.10293 24.4918C7.18335 24.465 7.29056 24.4382 7.37098 24.4382C7.66582 24.4382 7.96066 24.599 8.12149 24.8669C8.46994 25.4831 8.92562 26.019 9.48851 26.4209C9.89057 26.796 10.373 27.0371 10.8555 27.1711ZM18.4679 28.9126C18.2803 29.1001 18.039 29.1805 17.771 29.1537C17.5029 29.1269 17.2885 28.993 17.1277 28.8054C16.8596 28.4571 16.9132 27.9748 17.2349 27.6533C17.2617 27.6265 17.2617 27.6265 17.2885 27.5997C17.3421 27.5462 17.4225 27.4658 17.4761 27.3854C17.5833 27.2782 17.6638 27.1711 17.7442 27.0639C17.8246 26.9567 17.9318 26.8495 18.0122 26.7424C18.0658 26.662 18.1194 26.5816 18.173 26.5012C18.2266 26.4477 18.2534 26.3673 18.3071 26.2869C18.3339 26.2333 18.3875 26.1797 18.4143 26.0994C18.4411 26.0458 18.4679 26.019 18.4947 25.9654C18.5215 25.9118 18.5751 25.8314 18.6019 25.7778C18.6287 25.751 18.6287 25.6975 18.6555 25.6707C18.7091 25.5903 18.7359 25.4831 18.7895 25.4027C18.8967 25.1884 18.9772 24.9741 19.0308 24.7597C19.272 24.0631 19.3792 23.3129 19.3792 22.5627C19.3792 21.8125 19.272 21.0623 19.0308 20.3657C18.5751 18.9457 17.6638 17.6864 16.4576 16.8023C16.3772 16.7487 16.2968 16.6683 16.1895 16.6147C16.1627 16.5879 16.1359 16.5611 16.0823 16.5611C15.8947 16.454 15.7071 16.3468 15.5194 16.2396C15.4658 16.2128 15.4122 16.186 15.3586 16.1592C15.1978 16.0789 15.0638 15.9985 14.8761 15.9449C14.8225 15.9181 14.7689 15.8913 14.7153 15.8913C14.6349 15.8645 14.5545 15.8377 14.4741 15.8109C14.4205 15.8109 14.3937 15.7841 14.34 15.7573C14.2328 15.7305 14.0988 15.677 13.9648 15.6502C13.8844 15.6234 13.804 15.5966 13.7236 15.5966H13.6967C13.6699 15.5966 13.67 15.5966 13.6431 15.5966C13.6163 15.5966 13.5895 15.5966 13.5895 15.5966C13.4823 15.5698 13.3751 15.5698 13.2679 15.543C12.839 15.4894 12.5174 15.1143 12.5174 14.6856C12.5174 14.4445 12.6246 14.2034 12.8122 14.0426C12.973 13.9087 13.1875 13.8283 13.4019 13.8283C13.4555 13.8283 13.4823 13.8283 13.5359 13.8283C14.9565 14.0426 16.2968 14.5785 17.4761 15.4358C18.9772 16.5343 20.1297 18.1151 20.6926 19.8566C20.9875 20.7408 21.1215 21.6517 21.1215 22.5895C21.1215 23.5272 20.9875 24.4382 20.6926 25.3224C20.2906 26.662 19.5132 27.8945 18.4679 28.9126ZM20.505 11.792C19.7813 11.3097 18.8967 11.0418 17.9586 11.0418H7.23696C6.29881 11.0418 5.41428 11.3097 4.69056 11.792C3.40397 12.6226 2.54624 14.0962 2.54624 15.7306V29.1269C2.54624 30.7881 3.40397 32.2349 4.69056 33.0655C5.41428 33.5477 6.29881 33.8157 7.23696 33.8157H17.9586C18.8967 33.8157 19.7813 33.5477 20.505 33.0655C21.7916 32.2349 22.6493 30.7881 22.6493 29.1269V15.7306C22.6493 14.0694 21.7916 12.6226 20.505 11.792ZM10.4802 26.1261C10.3998 25.8582 10.4266 25.5635 10.6143 25.3224C10.7751 25.108 11.0431 24.9741 11.3112 24.9741C11.3916 24.9741 11.4988 24.9741 11.5792 25.0276C11.7937 25.0812 12.0349 25.108 12.2761 25.108C12.8122 25.108 13.3483 24.9473 13.7772 24.6258C14.206 24.3042 14.5545 23.8488 14.7153 23.3397C14.7957 23.0718 14.8493 22.8306 14.8493 22.5359C14.8493 22.268 14.7957 22.0001 14.7153 21.7589C14.5545 21.2499 14.2328 20.7944 13.7772 20.4729C13.5895 20.3389 13.3751 20.2049 13.1607 20.1514C12.7854 20.0174 12.571 19.6959 12.571 19.3208C12.571 19.0261 12.705 18.7849 12.9462 18.6242C13.1607 18.4634 13.4287 18.4098 13.6699 18.4902C13.6967 18.4902 13.7235 18.517 13.7504 18.517C13.8576 18.5438 13.938 18.5974 14.0184 18.6242C14.0988 18.6778 14.206 18.7045 14.2864 18.7581C14.3668 18.8117 14.4473 18.8385 14.5277 18.8921C14.5545 18.8921 14.5545 18.9189 14.5813 18.9189C14.6617 18.9725 14.7421 19.0261 14.8225 19.0796C15.5462 19.6155 16.1091 20.3657 16.3772 21.2231C16.5112 21.6518 16.5916 22.0804 16.5916 22.5359C16.5916 22.9914 16.5112 23.4469 16.3772 23.8756C16.1091 24.7329 15.5462 25.4831 14.8225 26.019C14.0988 26.5548 13.2143 26.8496 12.3029 26.8496C12.1957 26.8496 12.0617 26.8496 11.9545 26.8228C11.9009 26.8228 11.8473 26.8228 11.7937 26.796C11.74 26.796 11.6596 26.7692 11.606 26.7692C11.5524 26.7692 11.4988 26.7424 11.472 26.7424C11.4184 26.7424 11.3648 26.7156 11.3112 26.7156C11.2576 26.7156 11.204 26.6888 11.1503 26.662H11.1236C11.0967 26.662 11.0967 26.662 11.0699 26.6352C11.0699 26.6352 11.0699 26.6352 11.0431 26.6352C10.7483 26.5816 10.5607 26.3941 10.4802 26.1261ZM10.8555 27.1711H10.8823C10.9091 27.1711 10.9359 27.1711 10.9627 27.1979C11.0163 27.2246 11.0967 27.2246 11.1503 27.2514C11.204 27.2782 11.2844 27.2782 11.338 27.305C11.3916 27.305 11.4452 27.3318 11.4988 27.3318C11.7669 27.3854 12.0349 27.3854 12.3029 27.3854C13.3483 27.3854 14.3132 27.0639 15.1442 26.4477C15.9483 25.8582 16.5916 25.0008 16.8864 24.0363C17.0473 23.554 17.1277 23.045 17.1277 22.5359C17.1277 22.0269 17.0473 21.5178 16.8864 21.0355C16.5648 20.071 15.9483 19.2136 15.1442 18.6242C15.0638 18.5706 15.0102 18.517 14.9297 18.4902C14.6617 18.3027 14.3669 18.1687 14.0452 18.0347C14.0184 18.0079 13.9648 18.0079 13.938 17.9812H13.9112C13.6968 17.9008 13.4823 17.8472 13.2411 17.7936C12.839 17.7132 12.571 17.3649 12.571 16.9362C12.571 16.6683 12.6782 16.4272 12.8926 16.2664C13.0802 16.1324 13.2947 16.0521 13.5091 16.0789C13.5627 16.0789 13.5895 16.1057 13.6431 16.1057C13.7236 16.1057 13.804 16.1324 13.8844 16.1592C13.938 16.1592 13.9916 16.186 14.0452 16.186C14.0988 16.2128 14.1792 16.2128 14.2328 16.2396C14.2864 16.2664 14.3668 16.2932 14.4205 16.2932C14.5277 16.32 14.6617 16.3736 14.7689 16.4272C15.0369 16.5343 15.2782 16.6415 15.5194 16.7755C15.573 16.8023 15.6266 16.8291 15.6803 16.8559C15.7607 16.9094 15.8679 16.963 15.9483 17.0166C16.0287 17.0702 16.1091 17.1238 16.1895 17.1774C17.3153 17.9812 18.1462 19.16 18.5751 20.4729C18.7895 21.1159 18.8967 21.8125 18.8967 22.5091C18.8967 23.2057 18.7895 23.9024 18.5751 24.5454C18.5483 24.599 18.5215 24.6793 18.5215 24.7329C18.4947 24.7865 18.4679 24.8669 18.4411 24.9205C18.4143 24.9741 18.3875 25.0544 18.3607 25.108C18.2803 25.3224 18.173 25.5367 18.0658 25.7243C18.039 25.7778 17.9854 25.8582 17.9586 25.9118C17.905 25.9922 17.8514 26.0994 17.771 26.1797C17.7174 26.2333 17.6906 26.3137 17.6369 26.3673C17.5833 26.4477 17.5029 26.5548 17.4225 26.6352C17.3689 26.7156 17.2885 26.796 17.2349 26.8496C17.2081 26.8763 17.1813 26.9299 17.1545 26.9567C17.0741 27.0371 16.9936 27.1175 16.9132 27.1979C16.6988 27.4122 16.4308 27.6265 16.1895 27.8141C15.0638 28.6447 13.7236 29.0733 12.3297 29.0733C10.9359 29.0733 9.59571 28.6447 8.46994 27.8141C7.71942 27.2514 7.04932 26.528 6.59365 25.7243C6.45963 25.5099 6.45964 25.242 6.54006 25.0008C6.64727 24.7597 6.83489 24.5722 7.10293 24.4918C7.18335 24.465 7.29056 24.4382 7.37098 24.4382C7.66582 24.4382 7.96066 24.599 8.12149 24.8669C8.46994 25.4831 8.92562 26.019 9.48851 26.4209C9.89057 26.796 10.373 27.0371 10.8555 27.1711ZM18.4679 28.9126C18.2803 29.1001 18.039 29.1805 17.771 29.1537C17.5029 29.1269 17.2885 28.993 17.1277 28.8054C16.8596 28.4571 16.9132 27.9748 17.2349 27.6533C17.2617 27.6265 17.2617 27.6265 17.2885 27.5997C17.3421 27.5462 17.4225 27.4658 17.4761 27.3854C17.5833 27.2782 17.6638 27.1711 17.7442 27.0639C17.8246 26.9567 17.9318 26.8495 18.0122 26.7424C18.0658 26.662 18.1194 26.5816 18.173 26.5012C18.2266 26.4477 18.2534 26.3673 18.3071 26.2869C18.3339 26.2333 18.3875 26.1797 18.4143 26.0994C18.4411 26.0458 18.4679 26.019 18.4947 25.9654C18.5215 25.9118 18.5751 25.8314 18.6019 25.7778C18.6287 25.751 18.6287 25.6975 18.6555 25.6707C18.7091 25.5903 18.7359 25.4831 18.7895 25.4027C18.8967 25.1884 18.9772 24.9741 19.0308 24.7597C19.272 24.0631 19.3792 23.3129 19.3792 22.5627C19.3792 21.8125 19.272 21.0623 19.0308 20.3657C18.5751 18.9457 17.6638 17.6864 16.4576 16.8023C16.3772 16.7487 16.2968 16.6683 16.1895 16.6147C16.1627 16.5879 16.1359 16.5611 16.0823 16.5611C15.8947 16.454 15.7071 16.3468 15.5194 16.2396C15.4658 16.2128 15.4122 16.186 15.3586 16.1592C15.1978 16.0789 15.0638 15.9985 14.8761 15.9449C14.8225 15.9181 14.7689 15.8913 14.7153 15.8913C14.6349 15.8645 14.5545 15.8377 14.4741 15.8109C14.4205 15.8109 14.3937 15.7841 14.34 15.7573C14.2328 15.7305 14.0988 15.677 13.9648 15.6502C13.8844 15.6234 13.804 15.5966 13.7236 15.5966H13.6967C13.6699 15.5966 13.67 15.5966 13.6431 15.5966C13.6163 15.5966 13.5895 15.5966 13.5895 15.5966C13.4823 15.5698 13.3751 15.5698 13.2679 15.543C12.839 15.4894 12.5174 15.1143 12.5174 14.6856C12.5174 14.4445 12.6246 14.2034 12.8122 14.0426C12.973 13.9087 13.1875 13.8283 13.4019 13.8283C13.4555 13.8283 13.4823 13.8283 13.5359 13.8283C14.9565 14.0426 16.2968 14.5785 17.4761 15.4358C18.9772 16.5343 20.1297 18.1151 20.6926 19.8566C20.9875 20.7408 21.1215 21.6517 21.1215 22.5895C21.1215 23.5272 20.9875 24.4382 20.6926 25.3224C20.2906 26.662 19.5132 27.8945 18.4679 28.9126ZM20.505 11.792C19.7813 11.3097 18.8967 11.0418 17.9586 11.0418H7.23696C6.29881 11.0418 5.41428 11.3097 4.69056 11.792C3.40397 12.6226 2.54624 14.0962 2.54624 15.7306V29.1269C2.54624 30.7881 3.40397 32.2349 4.69056 33.0655C5.41428 33.5477 6.29881 33.8157 7.23696 33.8157H17.9586C18.8967 33.8157 19.7813 33.5477 20.505 33.0655C21.7916 32.2349 22.6493 30.7881 22.6493 29.1269V15.7306C22.6493 14.0694 21.7916 12.6226 20.505 11.792ZM10.4802 26.1261C10.3998 25.8582 10.4266 25.5635 10.6143 25.3224C10.7751 25.108 11.0431 24.9741 11.3112 24.9741C11.3916 24.9741 11.4988 24.9741 11.5792 25.0276C11.7937 25.0812 12.0349 25.108 12.2761 25.108C12.8122 25.108 13.3483 24.9473 13.7772 24.6258C14.206 24.3042 14.5545 23.8488 14.7153 23.3397C14.7957 23.0718 14.8493 22.8306 14.8493 22.5359C14.8493 22.268 14.7957 22.0001 14.7153 21.7589C14.5545 21.2499 14.2328 20.7944 13.7772 20.4729C13.5895 20.3389 13.3751 20.2049 13.1607 20.1514C12.7854 20.0174 12.571 19.6959 12.571 19.3208C12.571 19.0261 12.705 18.7849 12.9462 18.6242C13.1607 18.4634 13.4287 18.4098 13.6699 18.4902C13.6967 18.4902 13.7235 18.517 13.7504 18.517C13.8576 18.5438 13.938 18.5974 14.0184 18.6242C14.0988 18.6778 14.206 18.7045 14.2864 18.7581C14.3668 18.8117 14.4473 18.8385 14.5277 18.8921C14.5545 18.8921 14.5545 18.9189 14.5813 18.9189C14.6617 18.9725 14.7421 19.0261 14.8225 19.0796C15.5462 19.6155 16.1091 20.3657 16.3772 21.2231C16.5112 21.6518 16.5916 22.0804 16.5916 22.5359C16.5916 22.9914 16.5112 23.4469 16.3772 23.8756C16.1091 24.7329 15.5462 25.4831 14.8225 26.019C14.0988 26.5548 13.2143 26.8496 12.3029 26.8496C12.1957 26.8496 12.0617 26.8496 11.9545 26.8228C11.9009 26.8228 11.8473 26.8228 11.7937 26.796C11.74 26.796 11.6596 26.7692 11.606 26.7692C11.5524 26.7692 11.4988 26.7424 11.472 26.7424C11.4184 26.7424 11.3648 26.7156 11.3112 26.7156C11.2576 26.7156 11.204 26.6888 11.1503 26.662H11.1236C11.0967 26.662 11.0967 26.662 11.0699 26.6352C11.0699 26.6352 11.0699 26.6352 11.0431 26.6352C10.7483 26.5816 10.5607 26.3941 10.4802 26.1261ZM10.8555 27.1711H10.8823C10.9091 27.1711 10.9359 27.1711 10.9627 27.1979C11.0163 27.2246 11.0967 27.2246 11.1503 27.2514C11.204 27.2782 11.2844 27.2782 11.338 27.305C11.3916 27.305 11.4452 27.3318 11.4988 27.3318C11.7669 27.3854 12.0349 27.3854 12.3029 27.3854C13.3483 27.3854 14.3132 27.0639 15.1442 26.4477C15.9483 25.8582 16.5916 25.0008 16.8864 24.0363C17.0473 23.554 17.1277 23.045 17.1277 22.5359C17.1277 22.0269 17.0473 21.5178 16.8864 21.0355C16.5648 20.071 15.9483 19.2136 15.1442 18.6242C15.0638 18.5706 15.0102 18.517 14.9297 18.4902C14.6617 18.3027 14.3669 18.1687 14.0452 18.0347C14.0184 18.0079 13.9648 18.0079 13.938 17.9812H13.9112C13.6968 17.9008 13.4823 17.8472 13.2411 17.7936C12.839 17.7132 12.571 17.3649 12.571 16.9362C12.571 16.6683 12.6782 16.4272 12.8926 16.2664C13.0802 16.1324 13.2947 16.0521 13.5091 16.0789C13.5627 16.0789 13.5895 16.1057 13.6431 16.1057C13.7236 16.1057 13.804 16.1324 13.8844 16.1592C13.938 16.1592 13.9916 16.186 14.0452 16.186C14.0988 16.2128 14.1792 16.2128 14.2328 16.2396C14.2864 16.2664 14.3668 16.2932 14.4205 16.2932C14.5277 16.32 14.6617 16.3736 14.7689 16.4272C15.0369 16.5343 15.2782 16.6415 15.5194 16.7755C15.573 16.8023 15.6266 16.8291 15.6803 16.8559C15.7607 16.9094 15.8679 16.963 15.9483 17.0166C16.0287 17.0702 16.1091 17.1238 16.1895 17.1774C17.3153 17.9812 18.1462 19.16 18.5751 20.4729C18.7895 21.1159 18.8967 21.8125 18.8967 22.5091C18.8967 23.2057 18.7895 23.9024 18.5751 24.5454C18.5483 24.599 18.5215 24.6793 18.5215 24.7329C18.4947 24.7865 18.4679 24.8669 18.4411 24.9205C18.4143 24.9741 18.3875 25.0544 18.3607 25.108C18.2803 25.3224 18.173 25.5367 18.0658 25.7243C18.039 25.7778 17.9854 25.8582 17.9586 25.9118C17.905 25.9922 17.8514 26.0994 17.771 26.1797C17.7174 26.2333 17.6906 26.3137 17.6369 26.3673C17.5833 26.4477 17.5029 26.5548 17.4225 26.6352C17.3689 26.7156 17.2885 26.796 17.2349 26.8496C17.2081 26.8763 17.1813 26.9299 17.1545 26.9567C17.0741 27.0371 16.9936 27.1175 16.9132 27.1979C16.6988 27.4122 16.4308 27.6265 16.1895 27.8141C15.0638 28.6447 13.7236 29.0733 12.3297 29.0733C10.9359 29.0733 9.59571 28.6447 8.46994 27.8141C7.71942 27.2514 7.04932 26.528 6.59365 25.7243C6.45963 25.5099 6.45964 25.242 6.54006 25.0008C6.64727 24.7597 6.83489 24.5722 7.10293 24.4918C7.18335 24.465 7.29056 24.4382 7.37098 24.4382C7.66582 24.4382 7.96066 24.599 8.12149 24.8669C8.46994 25.4831 8.92562 26.019 9.48851 26.4209C9.89057 26.796 10.373 27.0371 10.8555 27.1711ZM18.4679 28.9126C18.2803 29.1001 18.039 29.1805 17.771 29.1537C17.5029 29.1269 17.2885 28.993 17.1277 28.8054C16.8596 28.4571 16.9132 27.9748 17.2349 27.6533C17.2617 27.6265 17.2617 27.6265 17.2885 27.5997C17.3421 27.5462 17.4225 27.4658 17.4761 27.3854C17.5833 27.2782 17.6638 27.1711 17.7442 27.0639C17.8246 26.9567 17.9318 26.8495 18.0122 26.7424C18.0658 26.662 18.1194 26.5816 18.173 26.5012C18.2266 26.4477 18.2534 26.3673 18.3071 26.2869C18.3339 26.2333 18.3875 26.1797 18.4143 26.0994C18.4411 26.0458 18.4679 26.019 18.4947 25.9654C18.5215 25.9118 18.5751 25.8314 18.6019 25.7778C18.6287 25.751 18.6287 25.6975 18.6555 25.6707C18.7091 25.5903 18.7359 25.4831 18.7895 25.4027C18.8967 25.1884 18.9772 24.9741 19.0308 24.7597C19.272 24.0631 19.3792 23.3129 19.3792 22.5627C19.3792 21.8125 19.272 21.0623 19.0308 20.3657C18.5751 18.9457 17.6638 17.6864 16.4576 16.8023C16.3772 16.7487 16.2968 16.6683 16.1895 16.6147C16.1627 16.5879 16.1359 16.5611 16.0823 16.5611C15.8947 16.454 15.7071 16.3468 15.5194 16.2396C15.4658 16.2128 15.4122 16.186 15.3586 16.1592C15.1978 16.0789 15.0638 15.9985 14.8761 15.9449C14.8225 15.9181 14.7689 15.8913 14.7153 15.8913C14.6349 15.8645 14.5545 15.8377 14.4741 15.8109C14.4205 15.8109 14.3937 15.7841 14.34 15.7573C14.2328 15.7305 14.0988 15.677 13.9648 15.6502C13.8844 15.6234 13.804 15.5966 13.7236 15.5966H13.6967C13.6699 15.5966 13.67 15.5966 13.6431 15.5966C13.6163 15.5966 13.5895 15.5966 13.5895 15.5966C13.4823 15.5698 13.3751 15.5698 13.2679 15.543C12.839 15.4894 12.5174 15.1143 12.5174 14.6856C12.5174 14.4445 12.6246 14.2034 12.8122 14.0426C12.973 13.9087 13.1875 13.8283 13.4019 13.8283C13.4555 13.8283 13.4823 13.8283 13.5359 13.8283C14.9565 14.0426 16.2968 14.5785 17.4761 15.4358C18.9772 16.5343 20.1297 18.1151 20.6926 19.8566C20.9875 20.7408 21.1215 21.6517 21.1215 22.5895C21.1215 23.5272 20.9875 24.4382 20.6926 25.3224C20.2906 26.662 19.5132 27.8945 18.4679 28.9126ZM20.505 11.792C19.7813 11.3097 18.8967 11.0418 17.9586 11.0418H7.23696C6.29881 11.0418 5.41428 11.3097 4.69056 11.792C3.40397 12.6226 2.54624 14.0962 2.54624 15.7306V29.1269C2.54624 30.7881 3.40397 32.2349 4.69056 33.0655C5.41428 33.5477 6.29881 33.8157 7.23696 33.8157H17.9586C18.8967 33.8157 19.7813 33.5477 20.505 33.0655C21.7916 32.2349 22.6493 30.7881 22.6493 29.1269V15.7306C22.6493 14.0694 21.7916 12.6226 20.505 11.792ZM10.4802 26.1261C10.3998 25.8582 10.4266 25.5635 10.6143 25.3224C10.7751 25.108 11.0431 24.9741 11.3112 24.9741C11.3916 24.9741 11.4988 24.9741 11.5792 25.0276C11.7937 25.0812 12.0349 25.108 12.2761 25.108C12.8122 25.108 13.3483 24.9473 13.7772 24.6258C14.206 24.3042 14.5545 23.8488 14.7153 23.3397C14.7957 23.0718 14.8493 22.8306 14.8493 22.5359C14.8493 22.268 14.7957 22.0001 14.7153 21.7589C14.5545 21.2499 14.2328 20.7944 13.7772 20.4729C13.5895 20.3389 13.3751 20.2049 13.1607 20.1514C12.7854 20.0174 12.571 19.6959 12.571 19.3208C12.571 19.0261 12.705 18.7849 12.9462 18.6242C13.1607 18.4634 13.4287 18.4098 13.6699 18.4902C13.6967 18.4902 13.7235 18.517 13.7504 18.517C13.8576 18.5438 13.938 18.5974 14.0184 18.6242C14.0988 18.6778 14.206 18.7045 14.2864 18.7581C14.3668 18.8117 14.4473 18.8385 14.5277 18.8921C14.5545 18.8921 14.5545 18.9189 14.5813 18.9189C14.6617 18.9725 14.7421 19.0261 14.8225 19.0796C15.5462 19.6155 16.1091 20.3657 16.3772 21.2231C16.5112 21.6518 16.5916 22.0804 16.5916 22.5359C16.5916 22.9914 16.5112 23.4469 16.3772 23.8756C16.1091 24.7329 15.5462 25.4831 14.8225 26.019C14.0988 26.5548 13.2143 26.8496 12.3029 26.8496C12.1957 26.8496 12.0617 26.8496 11.9545 26.8228C11.9009 26.8228 11.8473 26.8228 11.7937 26.796C11.74 26.796 11.6596 26.7692 11.606 26.7692C11.5524 26.7692 11.4988 26.7424 11.472 26.7424C11.4184 26.7424 11.3648 26.7156 11.3112 26.7156C11.2576 26.7156 11.204 26.6888 11.1503 26.662H11.1236C11.0967 26.662 11.0967 26.662 11.0699 26.6352C11.0699 26.6352 11.0699 26.6352 11.0431 26.6352C10.7483 26.5816 10.5607 26.3941 10.4802 26.1261ZM10.8555 27.1711H10.8823C10.9091 27.1711 10.9359 27.1711 10.9627 27.1979C11.0163 27.2246 11.0967 27.2246 11.1503 27.2514C11.204 27.2782 11.2844 27.2782 11.338 27.305C11.3916 27.305 11.4452 27.3318 11.4988 27.3318C11.7669 27.3854 12.0349 27.3854 12.3029 27.3854C13.3483 27.3854 14.3132 27.0639 15.1442 26.4477C15.9483 25.8582 16.5916 25.0008 16.8864 24.0363C17.0473 23.554 17.1277 23.045 17.1277 22.5359C17.1277 22.0269 17.0473 21.5178 16.8864 21.0355C16.5648 20.071 15.9483 19.2136 15.1442 18.6242C15.0638 18.5706 15.0102 18.517 14.9297 18.4902C14.6617 18.3027 14.3669 18.1687 14.0452 18.0347C14.0184 18.0079 13.9648 18.0079 13.938 17.9812H13.9112C13.6968 17.9008 13.4823 17.8472 13.2411 17.7936C12.839 17.7132 12.571 17.3649 12.571 16.9362C12.571 16.6683 12.6782 16.4272 12.8926 16.2664C13.0802 16.1324 13.2947 16.0521 13.5091 16.0789C13.5627 16.0789 13.5895 16.1057 13.6431 16.1057C13.7236 16.1057 13.804 16.1324 13.8844 16.1592C13.938 16.1592 13.9916 16.186 14.0452 16.186C14.0988 16.2128 14.1792 16.2128 14.2328 16.2396C14.2864 16.2664 14.3668 16.2932 14.4205 16.2932C14.5277 16.32 14.6617 16.3736 14.7689 16.4272C15.0369 16.5343 15.2782 16.6415 15.5194 16.7755C15.573 16.8023 15.6266 16.8291 15.6803 16.8559C15.7607 16.9094 15.8679 16.963 15.9483 17.0166C16.0287 17.0702 16.1091 17.1238 16.1895 17.1774C17.3153 17.9812 18.1462 19.16 18.5751 20.4729C18.7895 21.1159 18.8967 21.8125 18.8967 22.5091C18.8967 23.2057 18.7895 23.9024 18.5751 24.5454C18.5483 24.599 18.5215 24.6793 18.5215 24.7329C18.4947 24.7865 18.4679 24.8669 18.4411 24.9205C18.4143 24.9741 18.3875 25.0544 18.3607 25.108C18.2803 25.3224 18.173 25.5367 18.0658 25.7243C18.039 25.7778 17.9854 25.8582 17.9586 25.9118C17.905 25.9922 17.8514 26.0994 17.771 26.1797C17.7174 26.2333 17.6906 26.3137 17.6369 26.3673C17.5833 26.4477 17.5029 26.5548 17.4225 26.6352C17.3689 26.7156 17.2885 26.796 17.2349 26.8496C17.2081 26.8763 17.1813 26.9299 17.1545 26.9567C17.0741 27.0371 16.9936 27.1175 16.9132 27.1979C16.6988 27.4122 16.4308 27.6265 16.1895 27.8141C15.0638 28.6447 13.7236 29.0733 12.3297 29.0733C10.9359 29.0733 9.59571 28.6447 8.46994 27.8141C7.71942 27.2514 7.04932 26.528 6.59365 25.7243C6.45963 25.5099 6.45964 25.242 6.54006 25.0008C6.64727 24.7597 6.83489 24.5722 7.10293 24.4918C7.18335 24.465 7.29056 24.4382 7.37098 24.4382C7.66582 24.4382 7.96066 24.599 8.12149 24.8669C8.46994 25.4831 8.92562 26.019 9.48851 26.4209C9.89057 26.796 10.373 27.0371 10.8555 27.1711ZM18.4679 28.9126C18.2803 29.1001 18.039 29.1805 17.771 29.1537C17.5029 29.1269 17.2885 28.993 17.1277 28.8054C16.8596 28.4571 16.9132 27.9748 17.2349 27.6533C17.2617 27.6265 17.2617 27.6265 17.2885 27.5997C17.3421 27.5462 17.4225 27.4658 17.4761 27.3854C17.5833 27.2782 17.6638 27.1711 17.7442 27.0639C17.8246 26.9567 17.9318 26.8495 18.0122 26.7424C18.0658 26.662 18.1194 26.5816 18.173 26.5012C18.2266 26.4477 18.2534 26.3673 18.3071 26.2869C18.3339 26.2333 18.3875 26.1797 18.4143 26.0994C18.4411 26.0458 18.4679 26.019 18.4947 25.9654C18.5215 25.9118 18.5751 25.8314 18.6019 25.7778C18.6287 25.751 18.6287 25.6975 18.6555 25.6707C18.7091 25.5903 18.7359 25.4831 18.7895 25.4027C18.8967 25.1884 18.9772 24.9741 19.0308 24.7597C19.272 24.0631 19.3792 23.3129 19.3792 22.5627C19.3792 21.8125 19.272 21.0623 19.0308 20.3657C18.5751 18.9457 17.6638 17.6864 16.4576 16.8023C16.3772 16.7487 16.2968 16.6683 16.1895 16.6147C16.1627 16.5879 16.1359 16.5611 16.0823 16.5611C15.8947 16.454 15.7071 16.3468 15.5194 16.2396C15.4658 16.2128 15.4122 16.186 15.3586 16.1592C15.1978 16.0789 15.0638 15.9985 14.8761 15.9449C14.8225 15.9181 14.7689 15.8913 14.7153 15.8913C14.6349 15.8645 14.5545 15.8377 14.4741 15.8109C14.4205 15.8109 14.3937 15.7841 14.34 15.7573C14.2328 15.7305 14.0988 15.677 13.9648 15.6502C13.8844 15.6234 13.804 15.5966 13.7236 15.5966H13.6967C13.6699 15.5966 13.67 15.5966 13.6431 15.5966C13.6163 15.5966 13.5895 15.5966 13.5895 15.5966C13.4823 15.5698 13.3751 15.5698 13.2679 15.543C12.839 15.4894 12.5174 15.1143 12.5174 14.6856C12.5174 14.4445 12.6246 14.2034 12.8122 14.0426C12.973 13.9087 13.1875 13.8283 13.4019 13.8283C13.4555 13.8283 13.4823 13.8283 13.5359 13.8283C14.9565 14.0426 16.2968 14.5785 17.4761 15.4358C18.9772 16.5343 20.1297 18.1151 20.6926 19.8566C20.9875 20.7408 21.1215 21.6517 21.1215 22.5895C21.1215 23.5272 20.9875 24.4382 20.6926 25.3224C20.2906 26.662 19.5132 27.8945 18.4679 28.9126Z" fill="white"/>
<path d="M25.0618 14.3905C24.6062 11.9524 22.9175 9.9429 20.666 9.03195C19.835 8.68364 18.9237 8.49609 17.9588 8.49609H7.23711C6.27216 8.49609 5.36083 8.68364 4.5299 9.03195C1.87629 10.1037 0 12.7026 0 15.7301V29.1265C0 32.1541 1.87629 34.753 4.5299 35.8247C5.36083 36.173 6.27216 36.3606 7.23711 36.3606H17.9588C18.9237 36.3606 19.835 36.173 20.666 35.8247C23.3196 34.753 25.1959 32.1541 25.1959 29.1265V15.7301C25.1959 15.2747 25.1423 14.8192 25.0618 14.3905ZM21.8186 33.7349C20.7732 34.619 19.433 35.1281 17.9588 35.1281H7.23711C5.76288 35.1281 4.42267 34.5922 3.37731 33.7349C2.06391 32.6364 1.20618 30.9752 1.20618 29.1265V15.7301C1.20618 13.8814 2.06391 12.2203 3.37731 11.1218C4.42267 10.2376 5.76288 9.72855 7.23711 9.72855H17.9588C19.433 9.72855 20.7732 10.2644 21.8186 11.1218C23.132 12.2203 23.9897 13.8814 23.9897 15.7301V29.1265C23.9897 30.9752 23.1588 32.6364 21.8186 33.7349Z" fill="black"/>
<path d="M25.196 19.7491H24.9548C24.4991 19.7491 24.1506 19.4007 24.1506 18.9453V15.1943C24.1506 14.7388 24.4991 14.3905 24.9548 14.3905H25.196C25.6517 14.3905 26.0001 14.7388 26.0001 15.1943V18.9453C26.0001 19.4007 25.6517 19.7491 25.196 19.7491Z" fill="black"/>
<path d="M24.8207 29.1801C24.365 29.1801 24.0166 28.8318 24.0166 28.3763V23.2857C24.0166 22.8302 24.365 22.4819 24.8207 22.4819C25.2764 22.4819 25.6248 22.8302 25.6248 23.2857V28.3763C25.6248 28.8318 25.2496 29.1801 24.8207 29.1801Z" fill="black"/>
<path d="M20.5051 11.7916C19.7814 11.3093 18.8969 11.0414 17.9588 11.0414H7.23711C6.29896 11.0414 5.41443 11.3093 4.69072 11.7916C3.40412 12.6222 2.54639 14.0958 2.54639 15.7301V29.1265C2.54639 30.7876 3.40412 32.2345 4.69072 33.065C5.41443 33.5473 6.29896 33.8152 7.23711 33.8152H17.9588C18.8969 33.8152 19.7814 33.5473 20.5051 33.065C21.7917 32.2345 22.6495 30.7876 22.6495 29.1265V15.7301C22.6495 14.069 21.7917 12.6222 20.5051 11.7916ZM10.4804 26.1257C10.4 25.8578 10.4268 25.5631 10.6144 25.3219C10.7752 25.1076 11.0433 24.9736 11.3113 24.9736C11.3917 24.9736 11.499 24.9736 11.5794 25.0272C11.7938 25.0808 12.035 25.1076 12.2763 25.1076C12.8124 25.1076 13.3485 24.9468 13.7773 24.6253C14.2062 24.3038 14.5546 23.8483 14.7155 23.3393C14.7959 23.0713 14.8495 22.8302 14.8495 22.5355C14.8495 22.2676 14.7959 21.9996 14.7155 21.7585C14.5546 21.2494 14.233 20.7939 13.7773 20.4724C13.5897 20.3385 13.3752 20.2045 13.1608 20.1509C12.7856 20.017 12.5711 19.6954 12.5711 19.3203C12.5711 19.0256 12.7051 18.7845 12.9464 18.6237C13.1608 18.463 13.4289 18.4094 13.6701 18.4898C13.6969 18.4898 13.7237 18.5166 13.7505 18.5166C13.8577 18.5434 13.9381 18.5969 14.0185 18.6237C14.099 18.6773 14.2062 18.7041 14.2866 18.7577C14.367 18.8113 14.4474 18.8381 14.5278 18.8917C14.5546 18.8917 14.5546 18.9185 14.5814 18.9185C14.6619 18.972 14.7423 19.0256 14.8227 19.0792C15.5464 19.6151 16.1093 20.3653 16.3773 21.2226C16.5113 21.6513 16.5918 22.08 16.5918 22.5355C16.5918 22.991 16.5113 23.4464 16.3773 23.8751C16.1093 24.7325 15.5464 25.4827 14.8227 26.0185C14.099 26.5544 13.2144 26.8491 12.3031 26.8491C12.1959 26.8491 12.0618 26.8491 11.9546 26.8223C11.901 26.8223 11.8474 26.8223 11.7938 26.7955C11.7402 26.7955 11.6598 26.7687 11.6062 26.7687C11.5526 26.7687 11.499 26.7419 11.4722 26.7419C11.4185 26.7419 11.3649 26.7151 11.3113 26.7151C11.2577 26.7151 11.2041 26.6883 11.1505 26.6616H11.1237C11.0969 26.6616 11.0969 26.6616 11.0701 26.6348C11.0701 26.6348 11.0701 26.6348 11.0433 26.6348C10.7484 26.5812 10.5608 26.3936 10.4804 26.1257ZM10.8557 27.1706H10.8825C10.9093 27.1706 10.9361 27.1706 10.9629 27.1974C11.0165 27.2242 11.0969 27.2242 11.1505 27.251C11.2041 27.2778 11.2845 27.2778 11.3381 27.3046C11.3917 27.3046 11.4454 27.3314 11.499 27.3314C11.767 27.385 12.0351 27.385 12.3031 27.385C13.3485 27.385 14.3134 27.0634 15.1443 26.4472C15.9484 25.8578 16.5917 25.0004 16.8866 24.0359C17.0474 23.5536 17.1278 23.0445 17.1278 22.5355C17.1278 22.0264 17.0474 21.5173 16.8866 21.0351C16.5649 20.0705 15.9484 19.2132 15.1443 18.6237C15.0639 18.5701 15.0103 18.5166 14.9299 18.4898C14.6619 18.3022 14.367 18.1682 14.0454 18.0343C14.0186 18.0075 13.9649 18.0075 13.9381 17.9807H13.9113C13.6969 17.9003 13.4825 17.8467 13.2412 17.7932C12.8392 17.7128 12.5711 17.3645 12.5711 16.9358C12.5711 16.6679 12.6783 16.4267 12.8928 16.266C13.0804 16.132 13.2948 16.0516 13.5093 16.0784C13.5629 16.0784 13.5897 16.1052 13.6433 16.1052C13.7237 16.1052 13.8041 16.132 13.8845 16.1588C13.9381 16.1588 13.9918 16.1856 14.0454 16.1856C14.099 16.2124 14.1794 16.2124 14.233 16.2392C14.2866 16.266 14.367 16.2928 14.4206 16.2928C14.5278 16.3195 14.6618 16.3731 14.7691 16.4267C15.0371 16.5339 15.2783 16.6411 15.5196 16.775C15.5732 16.8018 15.6268 16.8286 15.6804 16.8554C15.7608 16.909 15.868 16.9626 15.9484 17.0162C16.0289 17.0697 16.1093 17.1233 16.1897 17.1769C17.3155 17.9807 18.1464 19.1596 18.5752 20.4724C18.7897 21.1155 18.8969 21.8121 18.8969 22.5087C18.8969 23.2053 18.7897 23.9019 18.5752 24.5449C18.5484 24.5985 18.5216 24.6789 18.5216 24.7325C18.4948 24.7861 18.468 24.8664 18.4412 24.92C18.4144 24.9736 18.3876 25.054 18.3608 25.1076C18.2804 25.3219 18.1732 25.5363 18.066 25.7238C18.0392 25.7774 17.9856 25.8578 17.9588 25.9114C17.9051 25.9917 17.8515 26.0989 17.7711 26.1793C17.7175 26.2329 17.6907 26.3133 17.6371 26.3668C17.5835 26.4472 17.5031 26.5544 17.4227 26.6348C17.3691 26.7151 17.2886 26.7955 17.235 26.8491C17.2082 26.8759 17.1814 26.9295 17.1546 26.9563C17.0742 27.0367 16.9938 27.117 16.9134 27.1974C16.699 27.4118 16.4309 27.6261 16.1897 27.8136C15.0639 28.6442 13.7237 29.0729 12.3299 29.0729C10.9361 29.0729 9.59586 28.6442 8.47009 27.8136C7.71957 27.251 7.04947 26.5276 6.5938 25.7238C6.45978 25.5095 6.45979 25.2415 6.54021 25.0004C6.64742 24.7593 6.83505 24.5717 7.10309 24.4913C7.1835 24.4646 7.29072 24.4378 7.37113 24.4378C7.66597 24.4378 7.96081 24.5985 8.12164 24.8664C8.47009 25.4827 8.92577 26.0185 9.48866 26.4204C9.89072 26.7955 10.3732 27.0367 10.8557 27.1706ZM18.468 28.9122C18.2804 29.0997 18.0392 29.1801 17.7711 29.1533C17.5031 29.1265 17.2887 28.9925 17.1278 28.805C16.8598 28.4567 16.9134 27.9744 17.235 27.6529C17.2618 27.6261 17.2618 27.6261 17.2887 27.5993C17.3423 27.5457 17.4227 27.4653 17.4763 27.385C17.5835 27.2778 17.6639 27.1706 17.7443 27.0634C17.8247 26.9563 17.932 26.8491 18.0124 26.7419C18.066 26.6616 18.1196 26.5812 18.1732 26.5008C18.2268 26.4472 18.2536 26.3668 18.3072 26.2865C18.334 26.2329 18.3876 26.1793 18.4144 26.0989C18.4412 26.0453 18.468 26.0185 18.4948 25.9649C18.5216 25.9114 18.5753 25.831 18.6021 25.7774C18.6289 25.7506 18.6289 25.697 18.6557 25.6702C18.7093 25.5898 18.7361 25.4827 18.7897 25.4023C18.8969 25.188 18.9773 24.9736 19.0309 24.7593C19.2722 24.0627 19.3794 23.3125 19.3794 22.5623C19.3794 21.8121 19.2722 21.0619 19.0309 20.3653C18.5752 18.9452 17.6639 17.686 16.4577 16.8018C16.3773 16.7482 16.2969 16.6679 16.1897 16.6143C16.1629 16.5875 16.1361 16.5607 16.0825 16.5607C15.8948 16.4535 15.7072 16.3464 15.5196 16.2392C15.466 16.2124 15.4124 16.1856 15.3588 16.1588C15.1979 16.0784 15.0639 15.998 14.8763 15.9445C14.8227 15.9177 14.7691 15.8909 14.7155 15.8909C14.635 15.8641 14.5546 15.8373 14.4742 15.8105C14.4206 15.8105 14.3938 15.7837 14.3402 15.7569C14.233 15.7301 14.099 15.6765 13.9649 15.6497C13.8845 15.6229 13.8041 15.5962 13.7237 15.5962H13.6969C13.6701 15.5962 13.6701 15.5962 13.6433 15.5962C13.6165 15.5962 13.5897 15.5962 13.5897 15.5962C13.4825 15.5694 13.3752 15.5694 13.268 15.5426C12.8392 15.489 12.5175 15.1139 12.5175 14.6852C12.5175 14.4441 12.6247 14.2029 12.8124 14.0422C12.9732 13.9082 13.1876 13.8278 13.4021 13.8278C13.4557 13.8278 13.4825 13.8278 13.5361 13.8278C14.9567 14.0422 16.2969 14.578 17.4763 15.4354C18.9773 16.5339 20.1299 18.1147 20.6928 19.8562C20.9876 20.7404 21.1216 21.6513 21.1216 22.5891C21.1216 23.5268 20.9876 24.4378 20.6928 25.3219C20.2907 26.6616 19.5134 27.894 18.468 28.9122Z" fill="black"/>
</g>
</svg>
